<svg width="32" height="32" viewBox="0 0 32 32" fill="none" xmlns="http://www.w3.org/2000/svg">
<path d="M16 8C15.4688 8 15 8.46875 15 9V9.625C12.7188 10.0625 11 12.0938 11 14.5V15.3125C11 16.7188 10.5312 18.0938 9.65625 19.2188L9.1875 19.7812C9 20.0312 8.96875 20.3438 9.09375 20.5938C9.21875 20.8438 9.46875 21 9.75 21H22.25C22.5625 21 22.8125 20.8438 22.9375 20.5938C23.0625 20.3438 23.0312 20.0312 22.8438 19.7812L22.375 19.2188C21.5 18.0938 21 16.7188 21 15.3125V14.5C21 12.0938 19.2812 10.0625 17 9.625V9C17 8.46875 16.5625 8 16 8ZM16 11C17.9375 11 19.5 12.5938 19.5 14.5V15.3125C19.5 16.8125 19.9375 18.25 20.75 19.5H11.2812C12.0938 18.25 12.5 16.8125 12.5 15.3125V14.5C12.5 12.5938 14.0938 11 16 11ZM14 22C14 22.5312 14.2188 23.0625 14.5938 23.4375C14.9688 23.8125 15.4688 24 16 24C16.5312 24 17.0625 23.8125 17.4375 23.4375C17.8125 23.0625 18 22.5312 18 22H16H14Z" fill="#E5E7EB"/>
</svg>
