<svg width="32" height="32" viewBox="0 0 32 32" fill="none" xmlns="http://www.w3.org/2000/svg">
<path d="M0 16C0 7.16344 7.16344 0 16 0C24.8366 0 32 7.16344 32 16C32 24.8366 24.8366 32 16 32C7.16344 32 0 24.8366 0 16Z" fill="#0033A1"/>
<path d="M25.3376 15.5234C25.5811 14.9485 25.5341 14.7227 25.4872 14.6846C25.4403 14.6435 25.2144 14.6376 24.7012 14.9632C24.9299 15.1274 25.1411 15.3152 25.3376 15.5234Z" fill="white"/>
<path d="M25.408 16.239C25.3406 16.286 25.2673 16.3358 25.191 16.3915C24.5252 16.8872 23.7509 17.641 23.0089 18.518C22.8358 18.7233 22.6686 18.9286 22.5103 19.1339H26.1178C26.2293 18.2921 26.0768 17.424 25.6603 16.6496C25.587 16.5059 25.499 16.3681 25.408 16.239Z" fill="white"/>
<path d="M26.32 15.8754C26.2789 15.8402 26.1088 15.8314 25.7422 16.0308C25.836 16.1687 25.927 16.3124 26.0091 16.462C26.0619 16.5587 26.1088 16.6555 26.1528 16.7553C26.4138 16.154 26.3698 15.9194 26.32 15.8754Z" fill="white"/>
<path d="M24.9563 16.0748C25.0296 16.022 25.0971 15.9721 25.1645 15.9252C24.924 15.6436 24.6513 15.4031 24.3521 15.2008C23.6863 15.6964 22.912 16.4502 22.1729 17.3242C21.6596 17.9314 21.1991 18.559 20.8413 19.131H22.0145C22.2315 18.8406 22.4603 18.5502 22.7038 18.2599C23.4693 17.3653 24.267 16.5851 24.9563 16.0748Z" fill="white"/>
<path d="M20.5537 12.1945V14.3531C21.2518 14.1068 21.985 14.0422 22.6889 14.1449C22.7769 14.0745 22.862 14.007 22.947 13.9454C23.7272 13.3647 24.2727 13.1975 24.566 13.4468C24.7919 13.6375 24.8007 14.0129 24.5954 14.5672C25.1262 14.2534 25.5105 14.1918 25.7422 14.3854C25.9797 14.5848 25.9768 14.9925 25.7363 15.5967C26.1117 15.4266 26.3933 15.4207 26.5781 15.5762C26.8743 15.8255 26.7951 16.3945 26.3522 17.2685C26.5429 17.8756 26.5957 18.5121 26.5223 19.1368H27.499V12.1945H20.5537Z" fill="white"/>
<path d="M22.2754 14.4998C21.7005 14.4675 21.1139 14.5584 20.5537 14.7755V16.3094C20.6006 16.2508 20.6505 16.1921 20.7004 16.1335C21.2224 15.5146 21.7621 14.9573 22.2754 14.4998Z" fill="white"/>
<path d="M24.3108 13.746C24.2551 13.6991 23.9442 13.6991 23.1992 14.2476C23.5277 14.3355 23.8474 14.4587 24.1495 14.6171C24.4076 14.0188 24.3607 13.7871 24.3108 13.746Z" fill="white"/>
<path d="M23.9912 14.9837C23.6187 14.7843 23.2169 14.6435 22.8004 14.5643C22.2284 15.0424 21.6037 15.673 20.9995 16.3886C20.8441 16.5705 20.6945 16.7552 20.5508 16.94V18.8523C20.9115 18.2804 21.3691 17.6645 21.8706 17.0691C22.5863 16.2273 23.3342 15.4941 23.9912 14.9837Z" fill="white"/>
<path d="M4.73616 16.9547L4.01758 19.1251H4.3754L4.54845 18.5678H5.24943L5.41661 19.1251H5.83016L5.11451 16.9547H4.73616ZM4.61297 18.3332L4.84761 17.5706C4.87401 17.4914 4.89161 17.4034 4.90627 17.3096H4.91214C4.9268 17.4034 4.9444 17.4914 4.96786 17.5706L5.19077 18.3332H4.61297Z" fill="white"/>
<path d="M6.47553 16.9547H6.09131V19.1251H6.47553V16.9547Z" fill="white"/>
<path d="M11.221 18.9931C11.221 19.0811 11.2152 19.1573 11.2005 19.2219C11.1858 19.2864 11.1682 19.3392 11.1418 19.3802C11.1155 19.4242 11.0861 19.4594 11.048 19.4858C11.0099 19.5122 10.9688 19.5357 10.9219 19.5504V19.8055C11.0157 19.7997 11.1037 19.7762 11.1858 19.7351C11.268 19.6941 11.3413 19.6384 11.4029 19.565C11.4645 19.4946 11.5143 19.4066 11.5495 19.304C11.5847 19.2013 11.6023 19.084 11.6023 18.955V17.3682H11.2181V18.9931H11.221Z" fill="white"/>
<path d="M12.9337 17.4122C12.8633 17.3917 12.7783 17.38 12.6786 17.38C12.5701 17.38 12.4674 17.4005 12.3765 17.4386C12.2856 17.4797 12.2064 17.5384 12.1389 17.6146C12.0714 17.6909 12.0216 17.7847 11.9864 17.8933C11.9512 18.0018 11.9336 18.1279 11.9336 18.2657C11.9336 18.5385 12.0011 18.7497 12.1389 18.8993C12.2768 19.0518 12.4733 19.1251 12.7255 19.1251C12.8575 19.1251 12.9719 19.1134 13.0716 19.0928C13.1684 19.0694 13.2534 19.0401 13.318 19.0019V16.9224H12.9337V17.4122ZM12.9337 18.8465C12.8927 18.8729 12.8282 18.8846 12.7343 18.8846C12.661 18.8846 12.5964 18.8699 12.5437 18.8377C12.4909 18.8083 12.4469 18.7644 12.4117 18.7086C12.3794 18.6529 12.353 18.5854 12.3383 18.5092C12.3237 18.43 12.3149 18.3449 12.3149 18.2481C12.3149 18.1572 12.3237 18.0722 12.3383 17.993C12.353 17.9138 12.3794 17.8463 12.4146 17.7877C12.4498 17.729 12.4938 17.685 12.5525 17.6498C12.6082 17.6176 12.6786 17.6 12.7636 17.6C12.8282 17.6 12.8839 17.6088 12.9337 17.6234V18.8465Z" fill="white"/>
<path d="M14.8666 17.6175C14.808 17.5383 14.7346 17.4767 14.6467 17.4328C14.5587 17.3888 14.4531 17.3653 14.3328 17.3653C14.2126 17.3653 14.1099 17.3888 14.019 17.4328C13.931 17.4767 13.8577 17.5383 13.799 17.6175C13.7404 17.6967 13.6964 17.7906 13.667 17.8991C13.6377 18.0076 13.623 18.1249 13.623 18.2511C13.623 18.3772 13.6377 18.4945 13.667 18.6001C13.6964 18.7086 13.7404 18.7995 13.799 18.8787C13.8577 18.9579 13.931 19.0195 14.019 19.0635C14.107 19.1075 14.2126 19.1309 14.3328 19.1309C14.4531 19.1309 14.5557 19.1075 14.6467 19.0635C14.7346 19.0195 14.808 18.9579 14.8666 18.8787C14.9253 18.7995 14.9693 18.7057 14.9986 18.6001C15.0279 18.4916 15.0426 18.3772 15.0426 18.2511C15.0426 18.1249 15.0279 18.0076 14.9986 17.8991C14.9693 17.7876 14.9253 17.6938 14.8666 17.6175ZM14.6437 18.4798C14.6349 18.5561 14.6203 18.6206 14.5968 18.6793C14.5733 18.7379 14.5411 18.7849 14.5 18.8171C14.4589 18.8523 14.4032 18.8699 14.3328 18.8699C14.2683 18.8699 14.2126 18.8523 14.1715 18.8171C14.1275 18.7819 14.0953 18.735 14.0718 18.6793C14.0483 18.6206 14.0337 18.5561 14.0219 18.4798C14.0131 18.4036 14.0073 18.3273 14.0073 18.2481C14.0073 18.166 14.0102 18.0868 14.019 18.0106C14.0278 17.9343 14.0425 17.8668 14.0689 17.8052C14.0923 17.7466 14.1275 17.6967 14.1686 17.6615C14.2096 17.6263 14.2654 17.6087 14.3328 17.6087C14.4032 17.6087 14.4589 17.6263 14.5 17.6615C14.5411 17.6967 14.5733 17.7466 14.5968 17.8052C14.6203 17.8668 14.6349 17.9343 14.6437 18.0106C14.6525 18.0868 14.6555 18.166 14.6555 18.2481C14.6584 18.3273 14.6525 18.4065 14.6437 18.4798Z" fill="white"/>
<path d="M16.2745 18.8113C16.21 18.8494 16.1249 18.867 16.0193 18.867C15.9196 18.867 15.8463 18.8406 15.7993 18.7819C15.7553 18.7262 15.7319 18.6587 15.7319 18.5796V17.3976H15.3447V18.559C15.3447 18.7497 15.3975 18.8905 15.5031 18.9872C15.6087 19.084 15.7759 19.1339 16.0046 19.1339C16.1542 19.1339 16.2833 19.1222 16.3889 19.0958C16.4974 19.0694 16.5854 19.0371 16.6558 18.999V17.3976H16.2715V18.8113H16.2745Z" fill="white"/>
<path d="M17.4653 17.3682H17.0811V19.1251H17.4653V17.3682Z" fill="white"/>
<path d="M18.5536 17.3653C18.4421 17.3653 18.3424 17.3858 18.2515 17.424C18.1605 17.4621 18.0843 17.5207 18.0227 17.597C17.9582 17.6733 17.9112 17.7642 17.876 17.8727C17.8438 17.9812 17.8262 18.1044 17.8262 18.2423C17.8262 18.5297 17.8966 18.7497 18.0403 18.9022C18.1811 19.0547 18.3746 19.128 18.6151 19.128C18.7442 19.128 18.8557 19.1163 18.9495 19.0928C19.0404 19.0694 19.1167 19.04 19.1783 19.0078L19.0874 18.7643C19.0404 18.7878 18.9818 18.8083 18.9114 18.8289C18.841 18.8494 18.7559 18.8582 18.6562 18.8582C18.3776 18.8582 18.2251 18.6998 18.1928 18.386H19.234V18.2364C19.2428 17.949 19.1871 17.7319 19.0698 17.5853C18.9524 17.4386 18.7794 17.3653 18.5536 17.3653ZM18.8732 18.1396H18.1693C18.1723 17.9607 18.2016 17.8287 18.2661 17.7436C18.3336 17.6498 18.4245 17.6029 18.5389 17.6029C18.6474 17.6029 18.7295 17.641 18.7853 17.7143C18.8439 17.7906 18.8732 17.9138 18.8732 18.0839V18.1396Z" fill="white"/>
<path d="M19.2338 13.7079H18.8496V15.8783H19.2338V13.7079Z" fill="white"/>
<path d="M18.1925 15.8372C18.2776 15.8079 18.348 15.7698 18.4008 15.7228C18.4536 15.6759 18.4917 15.6202 18.5152 15.5586C18.5386 15.497 18.5504 15.4295 18.5504 15.3621V13.7137H18.1661V15.3591C18.1661 15.3943 18.1603 15.4295 18.1515 15.4618C18.1427 15.4941 18.1251 15.5263 18.1016 15.5527C18.0781 15.5791 18.0488 15.5996 18.0078 15.6172C17.9696 15.6348 17.9198 15.6436 17.8582 15.6436H17.43V15.0042C17.43 14.8781 17.4153 14.7608 17.386 14.6523C17.3566 14.5438 17.3126 14.4499 17.254 14.3707C17.1953 14.2915 17.122 14.2299 17.034 14.1859C16.946 14.1419 16.8404 14.1185 16.7202 14.1185C16.5999 14.1185 16.4973 14.1419 16.4063 14.1859C16.3184 14.2299 16.245 14.2915 16.1864 14.3707C16.1277 14.4499 16.0837 14.5438 16.0544 14.6523C16.0251 14.7608 16.0104 14.8781 16.0104 15.0042C16.0104 15.0218 16.0104 15.0365 16.0104 15.0512V15.3562C16.0104 15.3914 16.0045 15.4266 15.9957 15.4589C15.9869 15.4911 15.9693 15.5234 15.9459 15.5498C15.9224 15.5762 15.8931 15.5967 15.852 15.6143C15.8139 15.6319 15.764 15.6407 15.7024 15.6407H15.3299L14.8577 14.5467C14.7668 14.3385 14.6407 14.2065 14.4794 14.1507C14.3181 14.095 14.1392 14.1097 13.9456 14.1918C13.8341 14.2387 13.7344 14.2945 13.6493 14.3561C13.5643 14.4176 13.4998 14.4763 13.4587 14.532L13.6581 14.7227C13.6904 14.6787 13.7373 14.6318 13.796 14.5848C13.8547 14.5379 13.9192 14.4998 13.9925 14.4675C14.1245 14.4118 14.2301 14.403 14.3122 14.444C14.3943 14.4851 14.4588 14.5584 14.5028 14.664L14.5468 14.7637L14.9252 15.6436H12.8193V14.8429C12.8193 14.6171 12.7548 14.444 12.6287 14.3297C12.5025 14.2153 12.3324 14.1566 12.1213 14.1566C11.9981 14.1566 11.8866 14.1683 11.784 14.1889C11.6813 14.2123 11.5992 14.2387 11.5405 14.2769L11.6491 14.5291C11.6989 14.5027 11.7576 14.4792 11.828 14.4587C11.8984 14.4382 11.9746 14.4294 12.0538 14.4294C12.1975 14.4294 12.2972 14.4646 12.3559 14.535C12.4146 14.6054 12.4439 14.6992 12.4439 14.8107V14.9192V15.6378H11.5669C11.5552 15.6378 11.5493 15.6378 11.5376 15.6378V15.8812C11.5523 15.8812 11.564 15.8841 11.5757 15.8841H12.441H12.8134H15.7083C15.8344 15.8841 15.94 15.8695 16.028 15.8401C16.113 15.8108 16.1834 15.7727 16.2362 15.7258C16.2421 15.7228 16.245 15.717 16.248 15.7111C16.292 15.7522 16.3418 15.7873 16.3975 15.8167C16.4855 15.8607 16.5911 15.8841 16.7114 15.8841L17.864 15.8812C17.999 15.8783 18.1045 15.8636 18.1925 15.8372ZM16.5589 15.5879C16.5149 15.5527 16.4826 15.5058 16.4591 15.4501C16.4357 15.3914 16.421 15.3269 16.4093 15.2506C16.4005 15.1744 16.3946 15.0981 16.3946 15.0189V15.0013C16.3946 14.9192 16.3975 14.84 16.4063 14.7637C16.4151 14.6875 16.4298 14.62 16.4562 14.5584C16.4797 14.4998 16.5149 14.4499 16.5559 14.4147C16.597 14.3795 16.6527 14.3619 16.7202 14.3619C16.7906 14.3619 16.8463 14.3795 16.8874 14.4147C16.9284 14.4499 16.9607 14.4998 16.9841 14.5584C17.0076 14.62 17.0223 14.6875 17.0311 14.7637C17.0399 14.84 17.0428 14.9192 17.0428 15.0013V15.6378H16.7172C16.6557 15.6378 16.6029 15.6231 16.5589 15.5879Z" fill="white"/>
<path d="M11.0978 15.0658V15.0013C11.0978 14.8752 11.0831 14.7579 11.0538 14.6494C11.0245 14.5408 10.9805 14.447 10.9218 14.3678C10.8631 14.2886 10.7898 14.227 10.7018 14.183C10.6138 14.139 10.5083 14.1156 10.388 14.1156C10.2678 14.1156 10.1651 14.139 10.0742 14.183C9.98619 14.227 9.91286 14.2886 9.8542 14.3678C9.79554 14.447 9.75155 14.5408 9.72222 14.6494C9.69289 14.7579 9.67822 14.8752 9.67822 15.0013C9.67822 15.1274 9.69289 15.2448 9.72222 15.3503C9.75155 15.4589 9.79554 15.5498 9.8542 15.629C9.91286 15.7082 9.98619 15.7698 10.0742 15.8138C10.1622 15.8577 10.2678 15.8812 10.388 15.8812H10.7224V15.8841C10.7224 15.9985 10.693 16.0895 10.6344 16.1598C10.5757 16.2302 10.4731 16.2654 10.3293 16.2654C10.2502 16.2654 10.1739 16.2566 10.1035 16.2361L10.0595 16.503C10.1622 16.5265 10.2736 16.5353 10.3968 16.5353C10.608 16.5353 10.7781 16.4766 10.9042 16.3622C11.0303 16.2478 11.0949 16.0748 11.0949 15.8489V15.0658H11.0978ZM10.2296 15.5879C10.1856 15.5527 10.1534 15.5058 10.1299 15.4501C10.1064 15.3914 10.0918 15.3269 10.08 15.2506C10.0712 15.1744 10.0654 15.0981 10.0654 15.0189V15.0013C10.0654 14.9192 10.0683 14.84 10.0771 14.7637C10.0859 14.6875 10.1006 14.62 10.127 14.5584C10.1504 14.4998 10.1856 14.4499 10.2267 14.4147C10.2678 14.3795 10.3235 14.3619 10.3909 14.3619C10.4613 14.3619 10.5259 14.3795 10.5699 14.4147C10.6109 14.4499 10.6432 14.4998 10.6666 14.5584C10.6901 14.6171 10.7048 14.6875 10.7136 14.7637C10.7224 14.84 10.7253 14.9192 10.7253 15.0013V15.1186V15.5586V15.6378H10.3909C10.3264 15.6378 10.2736 15.6231 10.2296 15.5879Z" fill="white"/>
<path d="M9.06233 15.6378H8.73677C8.67224 15.6378 8.61651 15.6202 8.57545 15.585C8.53146 15.5498 8.49919 15.5029 8.47573 15.4471C8.45227 15.3885 8.4376 15.3239 8.42587 15.2477C8.41707 15.1714 8.41121 15.0952 8.41121 15.016V14.9984C8.41121 14.9163 8.41414 14.8371 8.42294 14.7608C8.43174 14.6846 8.4464 14.6171 8.4728 14.5555C8.49626 14.4968 8.53146 14.447 8.57252 14.4118C8.61358 14.3766 8.66931 14.359 8.73677 14.359C8.80716 14.359 8.86288 14.3766 8.90395 14.4118C8.94501 14.447 8.97727 14.4968 9.00073 14.5555C9.0242 14.6171 9.03886 14.6846 9.04766 14.7608L9.39962 14.6464C9.37029 14.5379 9.3263 14.4441 9.26764 14.3649C9.20898 14.2857 9.13565 14.2241 9.04766 14.1801C8.95967 14.1361 8.85409 14.1126 8.73383 14.1126C8.61358 14.1126 8.51093 14.1361 8.42 14.1801C8.33201 14.2241 8.25869 14.2857 8.20003 14.3649C8.14137 14.4441 8.09738 14.5379 8.06805 14.6464C8.03872 14.7549 8.02405 14.8723 8.02405 14.9984C8.02405 15.1245 8.03872 15.2418 8.06805 15.3474C8.09738 15.4559 8.14137 15.5469 8.20003 15.626C8.20296 15.629 8.2059 15.6319 8.20883 15.6348H7.57237C7.50785 15.6348 7.45212 15.6172 7.41106 15.582C7.36706 15.5469 7.3348 15.4999 7.31134 15.4442C7.28787 15.3855 7.27321 15.321 7.26148 15.2448C7.25268 15.1685 7.24681 15.0922 7.24681 15.0131V14.9955V14.3913L7.24095 14.1126H6.72474C6.60449 14.1126 6.50183 14.1361 6.41091 14.1801C6.32292 14.2241 6.2496 14.2857 6.19094 14.3649C6.13228 14.4441 6.08828 14.5379 6.05895 14.6464C6.02962 14.7549 6.01496 14.8723 6.01496 14.9984V15.3533C6.01496 15.3885 6.00909 15.4237 6.00029 15.4559C5.99149 15.4882 5.9739 15.5205 5.95043 15.5469C5.92697 15.5733 5.89764 15.5938 5.85658 15.6114C5.81845 15.629 5.76859 15.6378 5.707 15.6378L4.71271 15.6407C4.64819 15.6407 4.59246 15.6231 4.5514 15.5879C4.50741 15.5527 4.47514 15.5058 4.45168 15.4501C4.42822 15.3914 4.41355 15.3269 4.40182 15.2506C4.39302 15.1744 4.38715 15.0981 4.38715 15.0189V15.0013C4.38715 14.9192 4.39009 14.84 4.39889 14.7637C4.40768 14.6875 4.42235 14.62 4.44875 14.5584C4.47221 14.4998 4.50741 14.4499 4.54847 14.4147C4.58953 14.3795 4.64526 14.3619 4.71271 14.3619C4.78311 14.3619 4.83883 14.3795 4.87989 14.4147L5.02361 14.183C4.93562 14.139 4.83003 14.1156 4.70978 14.1156C4.58953 14.1156 4.48688 14.139 4.39595 14.183C4.30796 14.227 4.23464 14.2886 4.17598 14.3678C4.11732 14.447 4.07332 14.5408 4.04399 14.6494C4.01466 14.7579 4 14.8752 4 15.0013C4 15.1274 4.01466 15.2448 4.04399 15.3503C4.07332 15.4589 4.11732 15.5498 4.17598 15.629C4.23464 15.7082 4.30796 15.7698 4.39595 15.8138C4.48394 15.8577 4.58953 15.8812 4.70978 15.8812L5.71579 15.8783C5.84191 15.8783 5.9475 15.8636 6.03549 15.8343C6.12055 15.805 6.19094 15.7668 6.24373 15.7199C6.29653 15.673 6.33465 15.6172 6.35812 15.5557C6.38158 15.4941 6.39331 15.4266 6.39331 15.3591V14.9984C6.39331 14.9163 6.39625 14.8371 6.40505 14.7608C6.41384 14.6846 6.42851 14.6171 6.45197 14.5555C6.47544 14.4968 6.5077 14.447 6.54876 14.4118C6.58982 14.3766 6.64555 14.359 6.71594 14.359H6.85379V14.9984C6.85379 15.1245 6.87139 15.2418 6.90072 15.3474C6.93005 15.4559 6.97404 15.5469 7.0327 15.626C7.09136 15.7052 7.16469 15.7668 7.25268 15.8108C7.34067 15.8548 7.44625 15.8783 7.56651 15.8783L8.65758 15.8753V15.8724C8.68104 15.8753 8.70157 15.8753 8.72503 15.8753L9.43188 15.8724V15.6378H9.06233Z" fill="white"/>
<path d="M17.2746 16.767C17.1632 16.767 17.0723 16.8579 17.0723 16.9693C17.0723 17.0808 17.1632 17.1717 17.2746 17.1717C17.3861 17.1717 17.477 17.0808 17.477 16.9693C17.477 16.8579 17.3861 16.767 17.2746 16.767Z" fill="white"/>
<path d="M11.4031 17.1717C11.5145 17.1717 11.6054 17.0808 11.6054 16.9693C11.6054 16.8579 11.5145 16.767 11.4031 16.767C11.2916 16.767 11.2007 16.8579 11.2007 16.9693C11.2007 17.0808 11.2916 17.1717 11.4031 17.1717Z" fill="white"/>
<path d="M14.582 16.2654C14.582 16.154 14.4911 16.0631 14.3796 16.0631C14.2682 16.0631 14.1772 16.154 14.1772 16.2654C14.1772 16.3769 14.2682 16.4678 14.3796 16.4678C14.4911 16.4678 14.582 16.3769 14.582 16.2654Z" fill="white"/>
<path d="M5.21725 16.2654C5.21725 16.154 5.12633 16.0631 5.01488 16.0631C4.90342 16.0631 4.8125 16.154 4.8125 16.2654C4.8125 16.3769 4.90342 16.4678 5.01488 16.4678C5.12633 16.4678 5.21725 16.3769 5.21725 16.2654Z" fill="white"/>
<path d="M5.73336 16.2654C5.73336 16.154 5.64244 16.0631 5.53099 16.0631C5.41954 16.0631 5.32861 16.154 5.32861 16.2654C5.32861 16.3769 5.41954 16.4678 5.53099 16.4678C5.64538 16.4678 5.73336 16.3769 5.73336 16.2654Z" fill="white"/>
<path d="M9.05662 17.556C9.00969 17.5061 8.9481 17.468 8.87478 17.4386C8.80145 17.4093 8.71346 17.3946 8.61374 17.3946C8.48176 17.3946 8.37324 17.4122 8.28525 17.4474C8.19726 17.4826 8.12393 17.5266 8.06821 17.5794C8.01834 17.5237 7.95382 17.4797 7.8717 17.4445C7.78957 17.4093 7.67812 17.3917 7.53734 17.3917C7.39362 17.3917 7.27337 17.4005 7.17658 17.421C7.07979 17.4416 6.98594 17.4709 6.90088 17.5149V19.128H7.2851V17.685C7.32323 17.6674 7.36136 17.6557 7.39655 17.6498C7.43468 17.641 7.48161 17.6381 7.53734 17.6381C7.64292 17.6381 7.72211 17.6615 7.77491 17.7114C7.8277 17.7613 7.85703 17.8258 7.85703 17.9079V19.128H8.24125V17.7554C8.32044 17.6762 8.4143 17.6381 8.52575 17.6381C8.62841 17.6381 8.70173 17.6674 8.74572 17.7231C8.78972 17.7789 8.81318 17.8434 8.81318 17.9167V19.128H9.1974V17.9138C9.1974 17.8463 9.18567 17.7818 9.16221 17.7202C9.13874 17.6586 9.10355 17.6029 9.05662 17.556Z" fill="white"/>
<path d="M10.8223 18.0311C10.8223 17.8111 10.7607 17.6469 10.6404 17.5354C10.5172 17.424 10.3559 17.3682 10.1506 17.3682C10.0333 17.3682 9.92478 17.38 9.82506 17.4005C9.72534 17.421 9.64615 17.4503 9.58749 17.4855L9.69014 17.729C9.73707 17.7026 9.79573 17.6791 9.86319 17.6615C9.93358 17.641 10.0069 17.6322 10.0832 17.6322C10.221 17.6322 10.3178 17.6674 10.3765 17.7348C10.4293 17.7994 10.4586 17.8844 10.4615 17.9871C10.3325 17.9988 10.2122 18.0193 10.0949 18.0428C9.98051 18.0692 9.87785 18.1044 9.7928 18.1513C9.70774 18.1983 9.63735 18.2599 9.58749 18.3332C9.53763 18.4094 9.51123 18.5004 9.51123 18.6118C9.51123 18.7761 9.56989 18.9022 9.68428 18.9931C9.79866 19.084 9.97171 19.128 10.2063 19.128C10.3383 19.128 10.4586 19.1163 10.5642 19.0928C10.6698 19.0694 10.7548 19.04 10.8223 19.0048V18.1425V18.0311ZM10.2298 18.9139C10.1154 18.9139 10.0274 18.8904 9.96584 18.8406C9.90425 18.7907 9.87199 18.7115 9.87199 18.6001C9.87199 18.5209 9.88665 18.4593 9.91305 18.4065C9.93945 18.3566 9.98051 18.3156 10.0304 18.2833C10.0802 18.2511 10.1418 18.2276 10.2151 18.21C10.2885 18.1924 10.3706 18.1777 10.4615 18.166V18.864C10.4322 18.8787 10.397 18.8904 10.3559 18.8992C10.3178 18.908 10.2767 18.9139 10.2298 18.9139Z" fill="white"/>
</svg>
