<svg width="109" height="33" viewBox="0 0 109 33" fill="none" xmlns="http://www.w3.org/2000/svg">
<path d="M26.7825 11.6759C26.7825 11.1119 26.8665 10.5119 27.0225 9.89992L28.3305 10.1399C28.2225 10.5839 28.1745 11.0159 28.1745 11.4119C28.1745 13.1279 29.2185 14.0759 31.1265 14.0759C31.9665 14.0759 32.7945 13.8959 33.6105 13.5239V7.89592H35.0625V14.3639C33.9945 15.0359 32.5665 15.5399 30.9945 15.5399C28.3425 15.5399 26.7825 14.0279 26.7825 11.6759ZM29.8305 7.59592C29.8305 7.10392 30.2145 6.71992 30.7065 6.71992C31.1865 6.71992 31.5705 7.10392 31.5705 7.59592C31.5705 8.07592 31.1865 8.45992 30.7065 8.45992C30.2145 8.45992 29.8305 8.07592 29.8305 7.59592ZM42.6907 7.18792V11.9999C42.6907 14.4479 41.3347 15.5399 39.1387 15.5399C38.4307 15.5399 37.6387 15.4199 37.0027 15.1919L37.2547 13.8359C37.7227 14.0159 38.4787 14.1719 39.1867 14.1719C40.5667 14.1719 41.1787 13.6079 41.2627 12.4199H40.2187C38.0467 12.4199 36.7627 11.2199 36.7627 9.49192C36.7627 7.72792 38.0467 6.52792 40.0507 6.52792C40.9267 6.52792 41.8147 6.74392 42.6907 7.18792ZM39.9907 10.9439H41.2627V8.15992C40.8427 7.95592 40.4107 7.85992 39.9667 7.85992C38.9227 7.85992 38.1787 8.41192 38.1787 9.40792C38.1787 10.3799 38.9227 10.9439 39.9907 10.9439ZM43.1268 15.4799L43.4028 14.0519C43.5828 14.0759 43.7508 14.0879 43.9188 14.0879C45.2748 14.0879 45.8028 13.4279 45.8028 12.0359V6.57592H47.2308V12.0239C47.2308 14.4599 46.0188 15.5399 43.9668 15.5399C43.6668 15.5399 43.3788 15.5159 43.1268 15.4799ZM45.6708 4.53592C45.6708 4.04392 46.0548 3.65992 46.5468 3.65992C47.0268 3.65992 47.4108 4.04392 47.4108 4.53592C47.4108 5.01592 47.0268 5.39992 46.5468 5.39992C46.0548 5.39992 45.6708 5.01592 45.6708 4.53592ZM52.8828 10.9439H53.0748V12.3959C53.0748 12.4079 53.0148 12.4199 52.8828 12.4199H52.8708C51.8148 12.4199 50.8548 12.1559 50.1708 11.7719C49.7388 11.5439 49.5948 11.3039 49.5948 10.7879V3.65992H51.0228V10.5599C51.5148 10.8119 52.1988 10.9439 52.8828 10.9439ZM60.4308 9.89992C60.4308 11.6999 59.1588 13.0199 57.3948 13.0199C56.4228 13.0199 55.5708 12.6239 55.0068 11.9159C54.3588 12.2519 53.6508 12.4199 52.8948 12.4199H52.8828C52.7508 12.4199 52.6908 12.4079 52.6908 12.3959V10.9439H52.8828C53.4948 10.9439 54.0108 10.8479 54.4308 10.6679C54.3708 10.4399 54.3468 10.1879 54.3468 9.89992C54.3468 8.09992 55.6308 6.77992 57.3948 6.77992C59.1588 6.77992 60.4308 8.09992 60.4308 9.89992ZM59.0148 9.89992C59.0148 8.89192 58.3668 8.15992 57.3708 8.15992C56.4108 8.15992 55.7628 8.89192 55.7628 9.89992C55.7628 10.9079 56.4108 11.6399 57.3708 11.6399C58.3668 11.6399 59.0148 10.9079 59.0148 9.89992ZM62.3565 12.4199V3.65992H63.7845V12.4199H62.3565ZM63.6405 1.81192H64.3365V2.74792H61.8045V1.81192H62.3805C62.2005 1.60792 62.1045 1.36792 62.1045 1.09192C62.1045 0.479921 62.5725 -7.9155e-05 63.2445 -7.9155e-05C63.6645 -7.9155e-05 64.0125 0.179921 64.2405 0.407921L63.7245 0.959921C63.6165 0.863921 63.4845 0.815921 63.3405 0.815921C63.0645 0.815921 62.8845 1.01992 62.8845 1.27192C62.8845 1.59592 63.1245 1.81192 63.6405 1.81192Z" fill="#111827"/>
<path d="M12.2725 26.4699H12.4325V27.3999C12.4325 27.4099 12.3825 27.4199 12.2725 27.4199C10.6725 27.3899 10.2325 27.0399 9.8125 25.6999L9.3725 24.1899H8.2325C7.6325 24.1899 7.2525 24.4799 7.2525 24.9699C7.2525 25.0699 7.2725 25.1899 7.3125 25.3199L8.3725 28.9399C7.9425 29.2099 7.3825 29.4499 6.6925 29.6699C6.0125 29.8899 5.3225 29.9999 4.6325 29.9999C2.4025 29.9999 1.1125 28.8099 1.1125 26.8999C1.1125 26.4199 1.1925 25.8699 1.3125 25.4299L2.1825 25.5899C2.0925 25.8999 2.0425 26.3499 2.0425 26.7099C2.0425 28.2199 2.9625 29.0499 4.6825 29.0499C5.1525 29.0499 5.6425 28.9899 6.1325 28.8799C6.6325 28.7699 7.0325 28.6399 7.3425 28.4899L6.4225 25.4099C6.3525 25.1899 6.3225 24.9799 6.3225 24.7799C6.3225 23.8699 7.0325 23.3099 8.0425 23.3099H10.0325L10.6525 25.4399C10.8825 26.2399 11.2125 26.4699 12.2725 26.4699ZM2.9625 31.7099C2.9625 31.3499 3.2425 31.0699 3.6125 31.0699C3.9625 31.0699 4.2425 31.3499 4.2425 31.7099C4.2425 32.0599 3.9625 32.3499 3.6125 32.3499C3.2525 32.3499 2.9625 32.0699 2.9625 31.7099ZM4.8825 31.7099C4.8825 31.3499 5.1625 31.0699 5.5225 31.0699C5.8825 31.0699 6.1625 31.3499 6.1625 31.7099C6.1625 32.0599 5.8825 32.3499 5.5225 32.3499C5.1625 32.3499 4.8825 32.0599 4.8825 31.7099ZM23.0654 26.4699H23.2254V27.3999C23.2254 27.4099 23.1754 27.4199 23.0654 27.4199H23.0554C22.3054 27.4199 21.6154 27.2499 20.9754 26.8999C20.5054 27.2299 19.9054 27.4199 19.3154 27.4199C18.7254 27.4199 18.1954 27.2399 17.7054 26.8799C17.2154 27.2399 16.6854 27.4199 16.1054 27.4199C15.4154 27.4199 14.8054 27.1499 14.4354 26.8599C14.0254 27.1699 13.1954 27.4199 12.2854 27.4199H12.2754C12.1654 27.4199 12.1154 27.4099 12.1154 27.3999V26.4699H12.2754C12.8654 26.4699 13.4254 26.3399 13.9754 26.0699V23.7399H14.9254V26.0899C15.2754 26.3399 15.6554 26.4699 16.0654 26.4699C16.4754 26.4699 16.8554 26.3499 17.1954 26.0999V23.7399H18.1454V26.0999C18.4954 26.3499 18.8754 26.4699 19.2854 26.4699C19.6954 26.4699 20.0754 26.3399 20.4154 26.0899V23.2899H21.3654V26.0799C21.8554 26.3399 22.4154 26.4699 23.0654 26.4699ZM27.4164 26.4699H27.5764V27.3999C27.5764 27.4099 27.5264 27.4199 27.4164 27.4199H27.4064C26.6064 27.4199 25.8464 27.2099 25.2464 26.8899C24.6364 27.2099 23.8764 27.4199 23.0764 27.4199H23.0664C22.9564 27.4199 22.9064 27.4099 22.9064 27.3999V26.4699H23.0664C23.7164 26.4699 24.2764 26.3399 24.7664 26.0799V22.4899H25.7164V26.0799C26.2064 26.3399 26.7664 26.4699 27.4164 26.4699ZM23.6564 28.8599C23.6564 28.4999 23.9364 28.2199 24.3064 28.2199C24.6564 28.2199 24.9364 28.4999 24.9364 28.8599C24.9364 29.2099 24.6564 29.4999 24.3064 29.4999C23.9464 29.4999 23.6564 29.2199 23.6564 28.8599ZM25.5764 28.8599C25.5764 28.4999 25.8564 28.2199 26.2164 28.2199C26.5764 28.2199 26.8564 28.4999 26.8564 28.8599C26.8564 29.2099 26.5764 29.4999 26.2164 29.4999C25.8564 29.4999 25.5764 29.2099 25.5764 28.8599ZM30.0621 22.4899V26.8199C29.7521 26.9899 29.3621 27.1399 28.8721 27.2499C28.3821 27.3599 27.9021 27.4199 27.4221 27.4199H27.4121C27.3021 27.4199 27.2521 27.4099 27.2521 27.3999V26.4699H27.4121C28.0921 26.4699 28.7221 26.3399 29.1121 26.1699V22.4899H30.0621ZM30.0321 20.8099H30.5821V21.5199H28.5121V20.8099H28.9921C28.8421 20.6399 28.7621 20.4299 28.7621 20.1999C28.7621 19.6899 29.1421 19.2999 29.7021 19.2999C30.0121 19.2999 30.2721 19.3999 30.4921 19.6099L30.1021 20.0399C30.0221 19.9599 29.9121 19.9199 29.7721 19.9199C29.5321 19.9199 29.3721 20.0899 29.3721 20.3299C29.3721 20.6099 29.5821 20.8099 30.0321 20.8099ZM30.1691 29.9599L30.3491 29.0199C30.5091 29.0399 30.6591 29.0499 30.7991 29.0499C31.9991 29.0499 32.4991 28.4299 32.4991 27.1499V22.5899H33.4491V27.1399C33.4491 29.0999 32.5091 29.9999 30.8291 29.9999C30.6391 29.9999 30.4191 29.9899 30.1691 29.9599ZM46.231 26.4699H46.391V27.3999C46.391 27.4099 46.341 27.4199 46.231 27.4199H46.221C45.641 27.4199 45.071 27.3099 44.511 27.0999V29.0299C43.721 29.5899 42.531 29.9999 41.241 29.9999C39.051 29.9999 37.841 28.8899 37.841 26.8599C37.841 26.3499 37.911 25.8499 38.041 25.3699L38.911 25.5299C38.821 25.9199 38.771 26.2999 38.771 26.6799C38.771 28.2899 39.631 29.0499 41.301 29.0499C42.191 29.0499 42.891 28.8299 43.561 28.5099V20.1199H44.511V22.5899H44.521V26.0799C45.011 26.3399 45.581 26.4699 46.231 26.4699ZM50.5805 26.4699H50.7405V27.3999C50.7405 27.4099 50.6905 27.4199 50.5805 27.4199H50.5705C49.7705 27.4199 49.0105 27.2099 48.4105 26.8899C47.8005 27.2099 47.0405 27.4199 46.2405 27.4199H46.2305C46.1205 27.4199 46.0705 27.4099 46.0705 27.3999V26.4699H46.2305C46.8805 26.4699 47.4405 26.3399 47.9305 26.0799V22.4899H48.8805V26.0799C49.3705 26.3399 49.9305 26.4699 50.5805 26.4699ZM47.8105 19.5799C47.8105 19.2299 48.0905 18.9699 48.4205 18.9699C48.7505 18.9699 49.0305 19.2499 49.0305 19.5799C49.0305 19.9099 48.7505 20.1899 48.4205 20.1899C48.0905 20.1899 47.8105 19.9099 47.8105 19.5799ZM46.9105 20.9099C46.9105 20.5599 47.1805 20.2999 47.5305 20.2999C47.8605 20.2999 48.1305 20.5799 48.1305 20.9099C48.1305 21.2399 47.8605 21.5199 47.5305 21.5199C47.1805 21.5199 46.9105 21.2599 46.9105 20.9099ZM48.7105 20.9099C48.7105 20.5599 48.9805 20.2999 49.3305 20.2999C49.6805 20.2999 49.9305 20.5599 49.9305 20.9099C49.9305 21.2599 49.6805 21.5199 49.3305 21.5199C48.9805 21.5199 48.7105 21.2599 48.7105 20.9099ZM58.0662 26.4699H58.2262V27.3999C58.2262 27.4099 58.1762 27.4199 58.0662 27.4199H58.0562C57.4062 27.4199 56.8162 27.2799 56.2862 26.9899C55.8362 27.5799 55.1262 27.9199 54.3162 27.9199C53.5062 27.9199 52.7962 27.5799 52.3462 26.9899C51.8262 27.2799 51.2362 27.4199 50.5862 27.4199H50.5762C50.4662 27.4199 50.4162 27.4099 50.4162 27.3999V26.4699H50.5762C51.1162 26.4699 51.5762 26.3799 51.9462 26.1899C51.8562 25.9399 51.8162 25.6499 51.8162 25.3199C51.8162 23.8199 52.8662 22.7199 54.3162 22.7199C55.7662 22.7199 56.8162 23.8199 56.8162 25.3199C56.8162 25.6299 56.7762 25.9199 56.6962 26.1899C57.0862 26.3799 57.5462 26.4699 58.0662 26.4699ZM55.8862 25.3199C55.8862 24.8299 55.7362 24.4199 55.4462 24.0999C55.1562 23.7799 54.7762 23.6199 54.3062 23.6199C53.8362 23.6199 53.4662 23.7799 53.1762 24.0999C52.8862 24.4199 52.7462 24.8299 52.7462 25.3199C52.7462 25.8099 52.8862 26.2199 53.1762 26.5399C53.4662 26.8599 53.8362 27.0199 54.3062 27.0199C54.7762 27.0199 55.1562 26.8599 55.4462 26.5399C55.7362 26.2199 55.8862 25.8099 55.8862 25.3199ZM64.3464 25.3199C64.3464 26.8199 63.2964 27.9199 61.8464 27.9199C61.0364 27.9199 60.3164 27.5799 59.8764 26.9899C59.3264 27.2799 58.7264 27.4199 58.0764 27.4199H58.0664C57.9564 27.4199 57.9064 27.4099 57.9064 27.3999V26.4699H58.0664C58.6164 26.4699 59.0764 26.3699 59.4664 26.1799C59.3864 25.9199 59.3464 25.6299 59.3464 25.3199C59.3464 23.8199 60.3964 22.7199 61.8464 22.7199C63.2964 22.7199 64.3464 23.8199 64.3464 25.3199ZM63.4164 25.3199C63.4164 24.8299 63.2664 24.4199 62.9764 24.0999C62.6864 23.7799 62.3064 23.6199 61.8364 23.6199C61.3664 23.6199 60.9964 23.7799 60.7064 24.0999C60.4164 24.4199 60.2764 24.8299 60.2764 25.3199C60.2764 25.8099 60.4164 26.2199 60.7064 26.5399C60.9964 26.8599 61.3664 27.0199 61.8364 27.0199C62.3064 27.0199 62.6864 26.8599 62.9764 26.5399C63.2664 26.2199 63.4164 25.8099 63.4164 25.3199Z" fill="#4B5563"/>
<g clip-path="url(#clip0_15817_23842)">
<path d="M77 16.4199C77 7.58337 84.1634 0.419922 93 0.419922C101.837 0.419922 109 7.58337 109 16.4199C109 25.2565 101.837 32.4199 93 32.4199C84.1634 32.4199 77 25.2565 77 16.4199Z" fill="#08001C"/>
<g clip-path="url(#clip1_15817_23842)">
<path d="M96.1463 18.6183C94.7288 19.9243 92.6742 20.6211 90.9052 20.6211C88.4248 20.6211 86.1919 19.4743 84.5025 17.5671C84.3698 17.4171 84.4887 17.2127 84.648 17.3295C86.4711 18.6554 88.7253 19.4531 91.0539 19.4531C92.6243 19.4531 94.3518 19.047 95.9403 18.2042C96.1802 18.0767 96.3809 18.4006 96.1463 18.6183Z" fill="#FF9900"/>
<path d="M96.7369 17.7748C96.5564 17.4855 95.5392 17.6381 95.0826 17.7058C94.9435 17.727 94.9223 17.5757 95.0476 17.4669C95.8577 16.7542 97.1871 16.9599 97.3421 17.1988C97.4972 17.439 97.3018 19.1047 96.5405 19.8997C96.4237 20.0219 96.3122 19.9568 96.3642 19.7949C96.5352 19.2613 96.9185 18.0655 96.7369 17.7748Z" fill="#FF9900"/>
<path d="M95.1139 12.4354V11.7426C95.1139 11.6377 95.1776 11.5674 95.254 11.5674H97.7355C97.8151 11.5674 97.8788 11.6391 97.8788 11.7426V12.3359C97.8777 12.4354 97.8109 12.5655 97.6919 12.7712L96.4061 15.066C96.8839 15.0514 97.3883 15.1403 97.8215 15.4456C97.9192 15.5146 97.9457 15.6155 97.9531 15.7151V16.4543C97.9531 16.5552 97.8639 16.6733 97.7705 16.6123C97.0071 16.1119 95.993 16.0575 95.1489 16.6176C95.0629 16.676 94.9727 16.5592 94.9727 16.4583V15.7562C94.9727 15.6434 94.9737 15.4509 95.064 15.2797L96.5537 12.6093H95.2572C95.1776 12.6093 95.1139 12.5389 95.1139 12.4354Z" fill="white"/>
<path d="M86.0617 16.7583H85.3067C85.2345 16.7517 85.1772 16.684 85.1719 16.5977V11.7546C85.1719 11.6577 85.2366 11.5807 85.3173 11.5807H86.0213C86.0946 11.5847 86.153 11.655 86.1583 11.7426V12.3757H86.1721C86.3558 11.7639 86.7009 11.4785 87.1659 11.4785C87.6384 11.4785 87.9336 11.7639 88.146 12.3757C88.3286 11.7639 88.7438 11.4785 89.1887 11.4785C89.5051 11.4785 89.8512 11.6418 90.0625 12.0081C90.3014 12.4156 90.2526 13.0075 90.2526 13.5265L90.2515 16.5831C90.2515 16.68 90.1868 16.7583 90.1061 16.7583H89.3522C89.2768 16.7517 89.2163 16.676 89.2163 16.5831V14.0162C89.2163 13.8118 89.2311 13.3022 89.195 13.1084C89.1388 12.7832 88.9699 12.6916 88.7512 12.6916C88.5686 12.6916 88.3775 12.8443 88.2999 13.0885C88.2224 13.3327 88.2299 13.7415 88.2299 14.0162V16.5831C88.2299 16.68 88.1651 16.7583 88.0844 16.7583H87.3305C87.2541 16.7517 87.1946 16.676 87.1946 16.5831L87.1935 14.0162C87.1935 13.476 87.2647 12.681 86.7285 12.681C86.1859 12.681 86.2071 13.4561 86.2071 14.0162V16.5831C86.2071 16.68 86.1424 16.7583 86.0617 16.7583Z" fill="white"/>
<path d="M100.015 11.4785C101.135 11.4785 101.742 12.681 101.742 14.21C101.742 15.6872 101.072 16.8592 100.015 16.8592C98.9153 16.8592 98.3164 15.6567 98.3164 14.1582C98.3164 12.6505 98.9227 11.4785 100.015 11.4785ZM100.022 12.4673C99.4653 12.4673 99.4302 13.415 99.4302 14.0056C99.4302 14.5976 99.4228 15.8611 100.015 15.8611C100.6 15.8611 100.628 14.8418 100.628 14.2206C100.628 13.8118 100.614 13.3234 100.515 12.9358C100.43 12.5987 100.262 12.4673 100.022 12.4673Z" fill="white"/>
<path d="M103.193 16.7583H102.442C102.366 16.7517 102.306 16.676 102.306 16.5831L102.305 11.7387C102.311 11.6497 102.374 11.5807 102.45 11.5807H103.15C103.216 11.5847 103.27 11.6404 103.285 11.7161V12.4567H103.299C103.51 11.7944 103.806 11.4785 104.327 11.4785C104.666 11.4785 104.996 11.6311 105.209 12.0492C105.406 12.4368 105.406 13.0885 105.406 13.557V16.6057C105.398 16.6906 105.335 16.7583 105.261 16.7583H104.504C104.435 16.7517 104.377 16.688 104.37 16.6057V13.9751C104.37 13.4455 104.419 12.6704 103.897 12.6704C103.714 12.6704 103.545 12.8244 103.461 13.0579C103.355 13.3539 103.341 13.6486 103.341 13.9751V16.5831C103.34 16.68 103.274 16.7583 103.193 16.7583Z" fill="white"/>
<path d="M93.1346 14.4455V14.2411C92.5889 14.2411 92.0123 14.3871 92.0123 15.1914C92.0123 15.5989 92.1811 15.8749 92.471 15.8749C92.6834 15.8749 92.8734 15.7117 92.9934 15.4462C93.1421 15.1197 93.1346 14.8131 93.1346 14.4455ZM93.8959 16.7456C93.846 16.8014 93.7738 16.8053 93.7176 16.7682C93.467 16.508 93.4224 16.3873 93.2843 16.1391C92.8702 16.6673 92.5772 16.8252 92.0399 16.8252C91.405 16.8252 90.9102 16.3355 90.9102 15.3547C90.9102 14.5888 91.2425 14.0672 91.715 13.8124C92.1249 13.5867 92.6972 13.5469 93.1346 13.4846V13.3624C93.1346 13.1381 93.1484 12.8727 93.0433 12.6789C92.9509 12.505 92.7747 12.4334 92.6197 12.4334C92.3319 12.4334 92.075 12.6179 92.0123 13.0001C91.9996 13.085 91.9497 13.1687 91.8817 13.1726L91.1491 13.0744C91.0875 13.0572 91.0195 12.9948 91.0365 12.8767C91.2053 11.7671 92.007 11.4326 92.7248 11.4326C93.0922 11.4326 93.5721 11.5547 93.862 11.9025C94.2294 12.3312 94.1943 12.9032 94.1943 13.5257V14.9963C94.1943 15.4383 94.3408 15.632 94.4789 15.871C94.5277 15.9559 94.5383 16.0581 94.4768 16.1218C94.3228 16.2824 94.0488 16.581 93.8981 16.7483L93.8959 16.7456Z" fill="white"/>
<path d="M83.2401 14.4455V14.2411C82.6943 14.2411 82.1178 14.3871 82.1178 15.1914C82.1178 15.5989 82.2866 15.8749 82.5765 15.8749C82.7888 15.8749 82.9789 15.7117 83.0989 15.4462C83.2475 15.1197 83.2401 14.8131 83.2401 14.4455ZM84.0014 16.7456C83.9515 16.8014 83.8793 16.8053 83.823 16.7682C83.5724 16.508 83.5278 16.3873 83.3898 16.1391C82.9757 16.6673 82.6827 16.8252 82.1454 16.8252C81.5104 16.8252 81.0156 16.3355 81.0156 15.3547C81.0156 14.5888 81.348 14.0672 81.8205 13.8124C82.2303 13.5867 82.8026 13.5469 83.2401 13.4846V13.3624C83.2401 13.1381 83.2539 12.8727 83.1488 12.6789C83.0564 12.505 82.8802 12.4334 82.7251 12.4334C82.4374 12.4334 82.1804 12.6179 82.1178 13.0001C82.105 13.085 82.0551 13.1687 81.9872 13.1726L81.2545 13.0744C81.1929 13.0572 81.125 12.9948 81.142 12.8767C81.3108 11.7671 82.1125 11.4326 82.8302 11.4326C83.1976 11.4326 83.6776 11.5547 83.9674 11.9025C84.3348 12.3312 84.2998 12.9032 84.2998 13.5257V14.9963C84.2998 15.4383 84.4463 15.632 84.5843 15.871C84.6332 15.9559 84.6438 16.0581 84.5822 16.1218C84.4283 16.2824 84.1543 16.581 84.0035 16.7483L84.0014 16.7456Z" fill="white"/>
</g>
</g>
<defs>
<clipPath id="clip0_15817_23842">
<rect width="32" height="32" fill="white" transform="translate(77 0.419922)"/>
</clipPath>
<clipPath id="clip1_15817_23842">
<rect width="24.422" height="9.21393" fill="white" transform="translate(81 11.4199)"/>
</clipPath>
</defs>
</svg>
