<svg width="32" height="32" viewBox="0 0 32 32" fill="none" xmlns="http://www.w3.org/2000/svg">
<g clip-path="url(#clip0_16701_26033)">
<path d="M0 16C0 7.16344 7.16344 0 16 0C24.8366 0 32 7.16344 32 16C32 24.8366 24.8366 32 16 32C7.16344 32 0 24.8366 0 16Z" fill="#08001C"/>
<g clip-path="url(#clip1_16701_26033)">
<path d="M19.1463 18.1983C17.7288 19.5044 15.6742 20.2012 13.9052 20.2012C11.4248 20.2012 9.19186 19.0544 7.50253 17.1472C7.3698 16.9972 7.48872 16.7928 7.64799 16.9096C9.47111 18.2355 11.7253 19.0332 14.0539 19.0332C15.6243 19.0332 17.3518 18.627 18.9403 17.7842C19.1802 17.6568 19.3809 17.9807 19.1463 18.1983Z" fill="#FF9900"/>
<path d="M19.7369 17.3549C19.5564 17.0656 18.5392 17.2182 18.0826 17.2859C17.9435 17.3071 17.9223 17.1558 18.0476 17.047C18.8577 16.3342 20.1871 16.54 20.3421 16.7789C20.4972 17.0191 20.3018 18.6848 19.5405 19.4798C19.4237 19.6019 19.3122 19.5369 19.3642 19.375C19.5352 18.8414 19.9185 17.6456 19.7369 17.3549Z" fill="#FF9900"/>
<path d="M18.1139 12.0155V11.3227C18.1139 11.2178 18.1776 11.1475 18.254 11.1475H20.7355C20.8151 11.1475 20.8788 11.2191 20.8788 11.3227V11.9159C20.8777 12.0155 20.8109 12.1456 20.6919 12.3513L19.4061 14.6461C19.8839 14.6315 20.3883 14.7204 20.8215 15.0257C20.9192 15.0947 20.9457 15.1956 20.9531 15.2951V16.0344C20.9531 16.1353 20.8639 16.2534 20.7705 16.1924C20.0071 15.692 18.993 15.6376 18.1489 16.1977C18.0629 16.2561 17.9727 16.1393 17.9727 16.0384V15.3363C17.9727 15.2235 17.9737 15.031 18.064 14.8598L19.5537 12.1894H18.2572C18.1776 12.1894 18.1139 12.119 18.1139 12.0155Z" fill="white"/>
<path d="M9.06167 16.3384H8.30672C8.23452 16.3318 8.17718 16.2641 8.17188 16.1778V11.3347C8.17188 11.2378 8.23664 11.1608 8.31734 11.1608H9.02132C9.09458 11.1648 9.15298 11.2351 9.15829 11.3227V11.9558H9.17209C9.35579 11.344 9.70087 11.0586 10.1659 11.0586C10.6384 11.0586 10.9336 11.344 11.146 11.9558C11.3286 11.344 11.7438 11.0586 12.1887 11.0586C12.5051 11.0586 12.8512 11.2218 13.0625 11.5882C13.3014 11.9956 13.2526 12.5876 13.2526 13.1065L13.2515 16.1632C13.2515 16.2601 13.1868 16.3384 13.1061 16.3384H12.3522C12.2768 16.3318 12.2163 16.2561 12.2163 16.1632V13.5963C12.2163 13.3919 12.2311 12.8822 12.195 12.6885C12.1388 12.3633 11.9699 12.2717 11.7512 12.2717C11.5686 12.2717 11.3775 12.4243 11.2999 12.6686C11.2224 12.9128 11.2299 13.3216 11.2299 13.5963V16.1632C11.2299 16.2601 11.1651 16.3384 11.0844 16.3384H10.3305C10.2541 16.3318 10.1946 16.2561 10.1946 16.1632L10.1935 13.5963C10.1935 13.0561 10.2647 12.2611 9.72848 12.2611C9.1859 12.2611 9.20713 13.0362 9.20713 13.5963V16.1632C9.20713 16.2601 9.14236 16.3384 9.06167 16.3384Z" fill="white"/>
<path d="M23.0153 11.0586C24.1355 11.0586 24.7418 12.2611 24.7418 13.7901C24.7418 15.2673 24.0718 16.4393 23.0153 16.4393C21.9153 16.4393 21.3164 15.2368 21.3164 13.7383C21.3164 12.2306 21.9227 11.0586 23.0153 11.0586ZM23.0217 12.0474C22.4653 12.0474 22.4302 12.9951 22.4302 13.5857C22.4302 14.1776 22.4228 15.4412 23.0153 15.4412C23.6003 15.4412 23.628 14.4219 23.628 13.8007C23.628 13.3919 23.6141 12.9035 23.5154 12.5159C23.4305 12.1788 23.2616 12.0474 23.0217 12.0474Z" fill="white"/>
<path d="M26.1934 16.3384H25.4417C25.3663 16.3318 25.3057 16.2561 25.3057 16.1632L25.3047 11.3187C25.3111 11.2298 25.3737 11.1608 25.4502 11.1608H26.1499C26.2157 11.1648 26.2699 11.2205 26.2847 11.2962V12.0368H26.2985C26.5098 11.3745 26.8061 11.0586 27.3274 11.0586C27.6661 11.0586 27.9964 11.2112 28.2087 11.6293C28.4062 12.0169 28.4062 12.6686 28.4062 13.1371V16.1858C28.3977 16.2707 28.3351 16.3384 28.2607 16.3384H27.5037C27.4347 16.3318 27.3773 16.2681 27.3699 16.1858V13.5552C27.3699 13.0256 27.4187 12.2505 26.8974 12.2505C26.7137 12.2505 26.5449 12.4044 26.461 12.638C26.3548 12.934 26.341 13.2287 26.341 13.5552V16.1632C26.3399 16.2601 26.2741 16.3384 26.1934 16.3384Z" fill="white"/>
<path d="M16.1346 14.0256V13.8212C15.5889 13.8212 15.0123 13.9672 15.0123 14.7715C15.0123 15.1789 15.1811 15.455 15.471 15.455C15.6834 15.455 15.8734 15.2918 15.9934 15.0263C16.1421 14.6998 16.1346 14.3932 16.1346 14.0256ZM16.8959 16.3257C16.846 16.3814 16.7738 16.3854 16.7176 16.3483C16.467 16.0881 16.4224 15.9673 16.2843 15.7191C15.8702 16.2474 15.5772 16.4053 15.0399 16.4053C14.405 16.4053 13.9102 15.9156 13.9102 14.9347C13.9102 14.1689 14.2425 13.6473 14.715 13.3925C15.1249 13.1668 15.6972 13.127 16.1346 13.0646V12.9425C16.1346 12.7182 16.1484 12.4528 16.0433 12.259C15.9509 12.0851 15.7747 12.0134 15.6197 12.0134C15.3319 12.0134 15.075 12.1979 15.0123 12.5802C14.9996 12.6651 14.9497 12.7487 14.8817 12.7527L14.1491 12.6545C14.0875 12.6373 14.0195 12.5749 14.0365 12.4567C14.2053 11.3472 15.007 11.0127 15.7248 11.0127C16.0922 11.0127 16.5721 11.1348 16.862 11.4825C17.2294 11.9112 17.1943 12.4833 17.1943 13.1058V14.5764C17.1943 15.0183 17.3408 15.2121 17.4789 15.451C17.5277 15.536 17.5383 15.6382 17.4768 15.7019C17.3228 15.8625 17.0488 16.1611 16.8981 16.3283L16.8959 16.3257Z" fill="white"/>
<path d="M6.2401 14.0256V13.8212C5.69433 13.8212 5.11778 13.9672 5.11778 14.7715C5.11778 15.1789 5.2866 15.455 5.57647 15.455C5.78884 15.455 5.9789 15.2918 6.09888 15.0263C6.24753 14.6998 6.2401 14.3932 6.2401 14.0256ZM7.00141 16.3257C6.95151 16.3814 6.87931 16.3854 6.82303 16.3483C6.57245 16.0881 6.52785 15.9673 6.38982 15.7191C5.97571 16.2474 5.68266 16.4053 5.14538 16.4053C4.51042 16.4053 4.01562 15.9156 4.01562 14.9347C4.01562 14.1689 4.34797 13.6473 4.82047 13.3925C5.23033 13.1668 5.80264 13.127 6.2401 13.0646V12.9425C6.2401 12.7182 6.25391 12.4528 6.14879 12.259C6.05641 12.0851 5.88015 12.0134 5.72513 12.0134C5.43738 12.0134 5.18042 12.1979 5.11778 12.5802C5.10503 12.6651 5.05513 12.7487 4.98717 12.7527L4.25453 12.6545C4.19295 12.6373 4.12499 12.5749 4.14198 12.4567C4.31081 11.3472 5.11247 11.0127 5.83025 11.0127C6.19763 11.0127 6.67756 11.1348 6.96744 11.4825C7.33482 11.9112 7.29978 12.4833 7.29978 13.1058V14.5764C7.29978 15.0183 7.44631 15.2121 7.58434 15.451C7.63319 15.536 7.64381 15.6382 7.58222 15.7019C7.42826 15.8625 7.15431 16.1611 7.00354 16.3283L7.00141 16.3257Z" fill="white"/>
</g>
</g>
<defs>
<clipPath id="clip0_16701_26033">
<rect width="32" height="32" fill="white"/>
</clipPath>
<clipPath id="clip1_16701_26033">
<rect width="24.422" height="9.21393" fill="white" transform="translate(4 11)"/>
</clipPath>
</defs>
</svg>
