<svg width="142" height="35" viewBox="0 0 142 35" fill="none" xmlns="http://www.w3.org/2000/svg">
<path d="M63.7825 11.6759C63.7825 11.1119 63.8665 10.5119 64.0225 9.89992L65.3305 10.1399C65.2225 10.5839 65.1745 11.0159 65.1745 11.4119C65.1745 13.1279 66.2185 14.0759 68.1265 14.0759C68.9665 14.0759 69.7945 13.8959 70.6105 13.5239V7.89592H72.0625V14.3639C70.9945 15.0359 69.5665 15.5399 67.9945 15.5399C65.3425 15.5399 63.7825 14.0279 63.7825 11.6759ZM66.8305 7.59592C66.8305 7.10392 67.2145 6.71992 67.7065 6.71992C68.1865 6.71992 68.5705 7.10392 68.5705 7.59592C68.5705 8.07592 68.1865 8.45992 67.7065 8.45992C67.2145 8.45992 66.8305 8.07592 66.8305 7.59592ZM79.6907 7.18792V11.9999C79.6907 14.4479 78.3347 15.5399 76.1387 15.5399C75.4307 15.5399 74.6387 15.4199 74.0027 15.1919L74.2547 13.8359C74.7227 14.0159 75.4787 14.1719 76.1867 14.1719C77.5667 14.1719 78.1787 13.6079 78.2627 12.4199H77.2187C75.0467 12.4199 73.7627 11.2199 73.7627 9.49192C73.7627 7.72792 75.0467 6.52792 77.0507 6.52792C77.9267 6.52792 78.8147 6.74392 79.6907 7.18792ZM76.9907 10.9439H78.2627V8.15992C77.8427 7.95592 77.4107 7.85992 76.9667 7.85992C75.9227 7.85992 75.1787 8.41192 75.1787 9.40792C75.1787 10.3799 75.9227 10.9439 76.9907 10.9439ZM80.1268 15.4799L80.4028 14.0519C80.5828 14.0759 80.7508 14.0879 80.9188 14.0879C82.2748 14.0879 82.8028 13.4279 82.8028 12.0359V6.57592H84.2308V12.0239C84.2308 14.4599 83.0188 15.5399 80.9668 15.5399C80.6668 15.5399 80.3788 15.5159 80.1268 15.4799ZM82.6708 4.53592C82.6708 4.04392 83.0548 3.65992 83.5468 3.65992C84.0268 3.65992 84.4108 4.04392 84.4108 4.53592C84.4108 5.01592 84.0268 5.39992 83.5468 5.39992C83.0548 5.39992 82.6708 5.01592 82.6708 4.53592ZM89.8828 10.9439H90.0748V12.3959C90.0748 12.4079 90.0148 12.4199 89.8828 12.4199H89.8708C88.8148 12.4199 87.8548 12.1559 87.1708 11.7719C86.7388 11.5439 86.5948 11.3039 86.5948 10.7879V3.65992H88.0228V10.5599C88.5148 10.8119 89.1988 10.9439 89.8828 10.9439ZM97.4308 9.89992C97.4308 11.6999 96.1588 13.0199 94.3948 13.0199C93.4228 13.0199 92.5708 12.6239 92.0068 11.9159C91.3588 12.2519 90.6508 12.4199 89.8948 12.4199H89.8828C89.7508 12.4199 89.6908 12.4079 89.6908 12.3959V10.9439H89.8828C90.4948 10.9439 91.0108 10.8479 91.4308 10.6679C91.3708 10.4399 91.3468 10.1879 91.3468 9.89992C91.3468 8.09992 92.6308 6.77992 94.3948 6.77992C96.1588 6.77992 97.4308 8.09992 97.4308 9.89992ZM96.0148 9.89992C96.0148 8.89192 95.3668 8.15992 94.3708 8.15992C93.4108 8.15992 92.7628 8.89192 92.7628 9.89992C92.7628 10.9079 93.4108 11.6399 94.3708 11.6399C95.3668 11.6399 96.0148 10.9079 96.0148 9.89992ZM99.3565 12.4199V3.65992H100.785V12.4199H99.3565ZM100.641 1.81192H101.337V2.74792H98.8045V1.81192H99.3805C99.2005 1.60792 99.1045 1.36792 99.1045 1.09192C99.1045 0.479921 99.5725 -7.9155e-05 100.245 -7.9155e-05C100.665 -7.9155e-05 101.013 0.179921 101.241 0.407921L100.725 0.959921C100.617 0.863921 100.485 0.815921 100.341 0.815921C100.065 0.815921 99.8845 1.01992 99.8845 1.27192C99.8845 1.59592 100.125 1.81192 100.641 1.81192Z" fill="white"/>
<path d="M49.2725 28.4699H49.4325V29.3999C49.4325 29.4099 49.3825 29.4199 49.2725 29.4199C47.6725 29.3899 47.2325 29.0399 46.8125 27.6999L46.3725 26.1899H45.2325C44.6325 26.1899 44.2525 26.4799 44.2525 26.9699C44.2525 27.0699 44.2725 27.1899 44.3125 27.3199L45.3725 30.9399C44.9425 31.2099 44.3825 31.4499 43.6925 31.6699C43.0125 31.8899 42.3225 31.9999 41.6325 31.9999C39.4025 31.9999 38.1125 30.8099 38.1125 28.8999C38.1125 28.4199 38.1925 27.8699 38.3125 27.4299L39.1825 27.5899C39.0925 27.8999 39.0425 28.3499 39.0425 28.7099C39.0425 30.2199 39.9625 31.0499 41.6825 31.0499C42.1525 31.0499 42.6425 30.9899 43.1325 30.8799C43.6325 30.7699 44.0325 30.6399 44.3425 30.4899L43.4225 27.4099C43.3525 27.1899 43.3225 26.9799 43.3225 26.7799C43.3225 25.8699 44.0325 25.3099 45.0425 25.3099H47.0325L47.6525 27.4399C47.8825 28.2399 48.2125 28.4699 49.2725 28.4699ZM39.9625 33.7099C39.9625 33.3499 40.2425 33.0699 40.6125 33.0699C40.9625 33.0699 41.2425 33.3499 41.2425 33.7099C41.2425 34.0599 40.9625 34.3499 40.6125 34.3499C40.2525 34.3499 39.9625 34.0699 39.9625 33.7099ZM41.8825 33.7099C41.8825 33.3499 42.1625 33.0699 42.5225 33.0699C42.8825 33.0699 43.1625 33.3499 43.1625 33.7099C43.1625 34.0599 42.8825 34.3499 42.5225 34.3499C42.1625 34.3499 41.8825 34.0599 41.8825 33.7099ZM60.0654 28.4699H60.2254V29.3999C60.2254 29.4099 60.1754 29.4199 60.0654 29.4199H60.0554C59.3054 29.4199 58.6154 29.2499 57.9754 28.8999C57.5054 29.2299 56.9054 29.4199 56.3154 29.4199C55.7254 29.4199 55.1954 29.2399 54.7054 28.8799C54.2154 29.2399 53.6854 29.4199 53.1054 29.4199C52.4154 29.4199 51.8054 29.1499 51.4354 28.8599C51.0254 29.1699 50.1954 29.4199 49.2854 29.4199H49.2754C49.1654 29.4199 49.1154 29.4099 49.1154 29.3999V28.4699H49.2754C49.8654 28.4699 50.4254 28.3399 50.9754 28.0699V25.7399H51.9254V28.0899C52.2754 28.3399 52.6554 28.4699 53.0654 28.4699C53.4754 28.4699 53.8554 28.3499 54.1954 28.0999V25.7399H55.1454V28.0999C55.4954 28.3499 55.8754 28.4699 56.2854 28.4699C56.6954 28.4699 57.0754 28.3399 57.4154 28.0899V25.2899H58.3654V28.0799C58.8554 28.3399 59.4154 28.4699 60.0654 28.4699ZM64.4164 28.4699H64.5764V29.3999C64.5764 29.4099 64.5264 29.4199 64.4164 29.4199H64.4064C63.6064 29.4199 62.8464 29.2099 62.2464 28.8899C61.6364 29.2099 60.8764 29.4199 60.0764 29.4199H60.0664C59.9564 29.4199 59.9064 29.4099 59.9064 29.3999V28.4699H60.0664C60.7164 28.4699 61.2764 28.3399 61.7664 28.0799V24.4899H62.7164V28.0799C63.2064 28.3399 63.7664 28.4699 64.4164 28.4699ZM60.6564 30.8599C60.6564 30.4999 60.9364 30.2199 61.3064 30.2199C61.6564 30.2199 61.9364 30.4999 61.9364 30.8599C61.9364 31.2099 61.6564 31.4999 61.3064 31.4999C60.9464 31.4999 60.6564 31.2199 60.6564 30.8599ZM62.5764 30.8599C62.5764 30.4999 62.8564 30.2199 63.2164 30.2199C63.5764 30.2199 63.8564 30.4999 63.8564 30.8599C63.8564 31.2099 63.5764 31.4999 63.2164 31.4999C62.8564 31.4999 62.5764 31.2099 62.5764 30.8599ZM67.0621 24.4899V28.8199C66.7521 28.9899 66.3621 29.1399 65.8721 29.2499C65.3821 29.3599 64.9021 29.4199 64.4221 29.4199H64.4121C64.3021 29.4199 64.2521 29.4099 64.2521 29.3999V28.4699H64.4121C65.0921 28.4699 65.7221 28.3399 66.1121 28.1699V24.4899H67.0621ZM67.0321 22.8099H67.5821V23.5199H65.5121V22.8099H65.9921C65.8421 22.6399 65.7621 22.4299 65.7621 22.1999C65.7621 21.6899 66.1421 21.2999 66.7021 21.2999C67.0121 21.2999 67.2721 21.3999 67.4921 21.6099L67.1021 22.0399C67.0221 21.9599 66.9121 21.9199 66.7721 21.9199C66.5321 21.9199 66.3721 22.0899 66.3721 22.3299C66.3721 22.6099 66.5821 22.8099 67.0321 22.8099ZM67.1691 31.9599L67.3491 31.0199C67.5091 31.0399 67.6591 31.0499 67.7991 31.0499C68.9991 31.0499 69.4991 30.4299 69.4991 29.1499V24.5899H70.4491V29.1399C70.4491 31.0999 69.5091 31.9999 67.8291 31.9999C67.6391 31.9999 67.4191 31.9899 67.1691 31.9599ZM83.231 28.4699H83.391V29.3999C83.391 29.4099 83.341 29.4199 83.231 29.4199H83.221C82.641 29.4199 82.071 29.3099 81.511 29.0999V31.0299C80.721 31.5899 79.531 31.9999 78.241 31.9999C76.051 31.9999 74.841 30.8899 74.841 28.8599C74.841 28.3499 74.911 27.8499 75.041 27.3699L75.911 27.5299C75.821 27.9199 75.771 28.2999 75.771 28.6799C75.771 30.2899 76.631 31.0499 78.301 31.0499C79.191 31.0499 79.891 30.8299 80.561 30.5099V22.1199H81.511V24.5899H81.521V28.0799C82.011 28.3399 82.581 28.4699 83.231 28.4699ZM87.5805 28.4699H87.7405V29.3999C87.7405 29.4099 87.6905 29.4199 87.5805 29.4199H87.5705C86.7705 29.4199 86.0105 29.2099 85.4105 28.8899C84.8005 29.2099 84.0405 29.4199 83.2405 29.4199H83.2305C83.1205 29.4199 83.0705 29.4099 83.0705 29.3999V28.4699H83.2305C83.8805 28.4699 84.4405 28.3399 84.9305 28.0799V24.4899H85.8805V28.0799C86.3705 28.3399 86.9305 28.4699 87.5805 28.4699ZM84.8105 21.5799C84.8105 21.2299 85.0905 20.9699 85.4205 20.9699C85.7505 20.9699 86.0305 21.2499 86.0305 21.5799C86.0305 21.9099 85.7505 22.1899 85.4205 22.1899C85.0905 22.1899 84.8105 21.9099 84.8105 21.5799ZM83.9105 22.9099C83.9105 22.5599 84.1805 22.2999 84.5305 22.2999C84.8605 22.2999 85.1305 22.5799 85.1305 22.9099C85.1305 23.2399 84.8605 23.5199 84.5305 23.5199C84.1805 23.5199 83.9105 23.2599 83.9105 22.9099ZM85.7105 22.9099C85.7105 22.5599 85.9805 22.2999 86.3305 22.2999C86.6805 22.2999 86.9305 22.5599 86.9305 22.9099C86.9305 23.2599 86.6805 23.5199 86.3305 23.5199C85.9805 23.5199 85.7105 23.2599 85.7105 22.9099ZM95.0662 28.4699H95.2262V29.3999C95.2262 29.4099 95.1762 29.4199 95.0662 29.4199H95.0562C94.4062 29.4199 93.8162 29.2799 93.2862 28.9899C92.8362 29.5799 92.1262 29.9199 91.3162 29.9199C90.5062 29.9199 89.7962 29.5799 89.3462 28.9899C88.8262 29.2799 88.2362 29.4199 87.5862 29.4199H87.5762C87.4662 29.4199 87.4162 29.4099 87.4162 29.3999V28.4699H87.5762C88.1162 28.4699 88.5762 28.3799 88.9462 28.1899C88.8562 27.9399 88.8162 27.6499 88.8162 27.3199C88.8162 25.8199 89.8662 24.7199 91.3162 24.7199C92.7662 24.7199 93.8162 25.8199 93.8162 27.3199C93.8162 27.6299 93.7762 27.9199 93.6962 28.1899C94.0862 28.3799 94.5462 28.4699 95.0662 28.4699ZM92.8862 27.3199C92.8862 26.8299 92.7362 26.4199 92.4462 26.0999C92.1562 25.7799 91.7762 25.6199 91.3062 25.6199C90.8362 25.6199 90.4662 25.7799 90.1762 26.0999C89.8862 26.4199 89.7462 26.8299 89.7462 27.3199C89.7462 27.8099 89.8862 28.2199 90.1762 28.5399C90.4662 28.8599 90.8362 29.0199 91.3062 29.0199C91.7762 29.0199 92.1562 28.8599 92.4462 28.5399C92.7362 28.2199 92.8862 27.8099 92.8862 27.3199ZM101.346 27.3199C101.346 28.8199 100.296 29.9199 98.8464 29.9199C98.0364 29.9199 97.3164 29.5799 96.8764 28.9899C96.3264 29.2799 95.7264 29.4199 95.0764 29.4199H95.0664C94.9564 29.4199 94.9064 29.4099 94.9064 29.3999V28.4699H95.0664C95.6164 28.4699 96.0764 28.3699 96.4664 28.1799C96.3864 27.9199 96.3464 27.6299 96.3464 27.3199C96.3464 25.8199 97.3964 24.7199 98.8464 24.7199C100.296 24.7199 101.346 25.8199 101.346 27.3199ZM100.416 27.3199C100.416 26.8299 100.266 26.4199 99.9764 26.0999C99.6864 25.7799 99.3064 25.6199 98.8364 25.6199C98.3664 25.6199 97.9964 25.7799 97.7064 26.0999C97.4164 26.4199 97.2764 26.8299 97.2764 27.3199C97.2764 27.8099 97.4164 28.2199 97.7064 28.5399C97.9964 28.8599 98.3664 29.0199 98.8364 29.0199C99.3064 29.0199 99.6864 28.8599 99.9764 28.5399C100.266 28.2199 100.416 27.8099 100.416 27.3199Z" fill="#E5E7EB"/>
<g clip-path="url(#clip0_15165_13650)">
<path d="M110 17.4199C110 8.58337 117.163 1.41992 126 1.41992C134.837 1.41992 142 8.58337 142 17.4199C142 26.2565 134.837 33.4199 126 33.4199C117.163 33.4199 110 26.2565 110 17.4199Z" fill="#08001C"/>
<g clip-path="url(#clip1_15165_13650)">
<path d="M129.146 19.6183C127.729 20.9243 125.674 21.6211 123.905 21.6211C121.425 21.6211 119.192 20.4743 117.503 18.5671C117.37 18.4171 117.489 18.2127 117.648 18.3295C119.471 19.6554 121.725 20.4531 124.054 20.4531C125.624 20.4531 127.352 20.047 128.94 19.2042C129.18 19.0767 129.381 19.4006 129.146 19.6183Z" fill="#FF9900"/>
<path d="M129.737 18.7748C129.556 18.4855 128.539 18.6381 128.083 18.7058C127.944 18.727 127.922 18.5757 128.048 18.4669C128.858 17.7542 130.187 17.9599 130.342 18.1988C130.497 18.439 130.302 20.1047 129.54 20.8997C129.424 21.0219 129.312 20.9568 129.364 20.7949C129.535 20.2613 129.918 19.0655 129.737 18.7748Z" fill="#FF9900"/>
<path d="M128.114 13.4354V12.7426C128.114 12.6377 128.178 12.5674 128.254 12.5674H130.735C130.815 12.5674 130.879 12.6391 130.879 12.7426V13.3359C130.878 13.4354 130.811 13.5655 130.692 13.7712L129.406 16.066C129.884 16.0514 130.388 16.1403 130.821 16.4456C130.919 16.5146 130.946 16.6155 130.953 16.7151V17.4543C130.953 17.5552 130.864 17.6733 130.771 17.6123C130.007 17.1119 128.993 17.0575 128.149 17.6176C128.063 17.676 127.973 17.5592 127.973 17.4583V16.7562C127.973 16.6434 127.974 16.4509 128.064 16.2797L129.554 13.6093H128.257C128.178 13.6093 128.114 13.5389 128.114 13.4354Z" fill="white"/>
<path d="M119.062 17.7583H118.307C118.235 17.7517 118.177 17.684 118.172 17.5977V12.7546C118.172 12.6577 118.237 12.5807 118.317 12.5807H119.021C119.095 12.5847 119.153 12.655 119.158 12.7426V13.3757H119.172C119.356 12.7639 119.701 12.4785 120.166 12.4785C120.638 12.4785 120.934 12.7639 121.146 13.3757C121.329 12.7639 121.744 12.4785 122.189 12.4785C122.505 12.4785 122.851 12.6418 123.063 13.0081C123.301 13.4156 123.253 14.0075 123.253 14.5265L123.252 17.5831C123.252 17.68 123.187 17.7583 123.106 17.7583H122.352C122.277 17.7517 122.216 17.676 122.216 17.5831V15.0162C122.216 14.8118 122.231 14.3022 122.195 14.1084C122.139 13.7832 121.97 13.6916 121.751 13.6916C121.569 13.6916 121.377 13.8443 121.3 14.0885C121.222 14.3327 121.23 14.7415 121.23 15.0162V17.5831C121.23 17.68 121.165 17.7583 121.084 17.7583H120.331C120.254 17.7517 120.195 17.676 120.195 17.5831L120.194 15.0162C120.194 14.476 120.265 13.681 119.728 13.681C119.186 13.681 119.207 14.4561 119.207 15.0162V17.5831C119.207 17.68 119.142 17.7583 119.062 17.7583Z" fill="white"/>
<path d="M133.015 12.4785C134.135 12.4785 134.742 13.681 134.742 15.21C134.742 16.6872 134.072 17.8592 133.015 17.8592C131.915 17.8592 131.316 16.6567 131.316 15.1582C131.316 13.6505 131.923 12.4785 133.015 12.4785ZM133.022 13.4673C132.465 13.4673 132.43 14.415 132.43 15.0056C132.43 15.5976 132.423 16.8611 133.015 16.8611C133.6 16.8611 133.628 15.8418 133.628 15.2206C133.628 14.8118 133.614 14.3234 133.515 13.9358C133.43 13.5987 133.262 13.4673 133.022 13.4673Z" fill="white"/>
<path d="M136.193 17.7583H135.442C135.366 17.7517 135.306 17.676 135.306 17.5831L135.305 12.7387C135.311 12.6497 135.374 12.5807 135.45 12.5807H136.15C136.216 12.5847 136.27 12.6404 136.285 12.7161V13.4567H136.299C136.51 12.7944 136.806 12.4785 137.327 12.4785C137.666 12.4785 137.996 12.6311 138.209 13.0492C138.406 13.4368 138.406 14.0885 138.406 14.557V17.6057C138.398 17.6906 138.335 17.7583 138.261 17.7583H137.504C137.435 17.7517 137.377 17.688 137.37 17.6057V14.9751C137.37 14.4455 137.419 13.6704 136.897 13.6704C136.714 13.6704 136.545 13.8244 136.461 14.0579C136.355 14.3539 136.341 14.6486 136.341 14.9751V17.5831C136.34 17.68 136.274 17.7583 136.193 17.7583Z" fill="white"/>
<path d="M126.135 15.4455V15.2411C125.589 15.2411 125.012 15.3871 125.012 16.1914C125.012 16.5989 125.181 16.8749 125.471 16.8749C125.683 16.8749 125.873 16.7117 125.993 16.4462C126.142 16.1197 126.135 15.8131 126.135 15.4455ZM126.896 17.7456C126.846 17.8014 126.774 17.8053 126.718 17.7682C126.467 17.508 126.422 17.3873 126.284 17.1391C125.87 17.6673 125.577 17.8252 125.04 17.8252C124.405 17.8252 123.91 17.3355 123.91 16.3547C123.91 15.5888 124.243 15.0672 124.715 14.8124C125.125 14.5867 125.697 14.5469 126.135 14.4846V14.3624C126.135 14.1381 126.148 13.8727 126.043 13.6789C125.951 13.505 125.775 13.4334 125.62 13.4334C125.332 13.4334 125.075 13.6179 125.012 14.0001C125 14.085 124.95 14.1687 124.882 14.1726L124.149 14.0744C124.087 14.0572 124.02 13.9948 124.037 13.8767C124.205 12.7671 125.007 12.4326 125.725 12.4326C126.092 12.4326 126.572 12.5547 126.862 12.9025C127.229 13.3312 127.194 13.9032 127.194 14.5257V15.9963C127.194 16.4383 127.341 16.632 127.479 16.871C127.528 16.9559 127.538 17.0581 127.477 17.1218C127.323 17.2824 127.049 17.581 126.898 17.7483L126.896 17.7456Z" fill="white"/>
<path d="M116.24 15.4455V15.2411C115.694 15.2411 115.118 15.3871 115.118 16.1914C115.118 16.5989 115.287 16.8749 115.576 16.8749C115.789 16.8749 115.979 16.7117 116.099 16.4462C116.248 16.1197 116.24 15.8131 116.24 15.4455ZM117.001 17.7456C116.952 17.8014 116.879 17.8053 116.823 17.7682C116.572 17.508 116.528 17.3873 116.39 17.1391C115.976 17.6673 115.683 17.8252 115.145 17.8252C114.51 17.8252 114.016 17.3355 114.016 16.3547C114.016 15.5888 114.348 15.0672 114.82 14.8124C115.23 14.5867 115.803 14.5469 116.24 14.4846V14.3624C116.24 14.1381 116.254 13.8727 116.149 13.6789C116.056 13.505 115.88 13.4334 115.725 13.4334C115.437 13.4334 115.18 13.6179 115.118 14.0001C115.105 14.085 115.055 14.1687 114.987 14.1726L114.255 14.0744C114.193 14.0572 114.125 13.9948 114.142 13.8767C114.311 12.7671 115.112 12.4326 115.83 12.4326C116.198 12.4326 116.678 12.5547 116.967 12.9025C117.335 13.3312 117.3 13.9032 117.3 14.5257V15.9963C117.3 16.4383 117.446 16.632 117.584 16.871C117.633 16.9559 117.644 17.0581 117.582 17.1218C117.428 17.2824 117.154 17.581 117.004 17.7483L117.001 17.7456Z" fill="white"/>
</g>
</g>
<defs>
<clipPath id="clip0_15165_13650">
<rect width="32" height="32" fill="white" transform="translate(110 1.41992)"/>
</clipPath>
<clipPath id="clip1_15165_13650">
<rect width="24.422" height="9.21393" fill="white" transform="translate(114 12.4199)"/>
</clipPath>
</defs>
</svg>
