<svg width="32" height="32" viewBox="0 0 32 32" fill="none" xmlns="http://www.w3.org/2000/svg">
<path d="M0 16C0 7.16344 7.16344 0 16 0C24.8366 0 32 7.16344 32 16C32 24.8366 24.8366 32 16 32C7.16344 32 0 24.8366 0 16Z" fill="#E12626"/>
<g clip-path="url(#clip0_16827_9715)">
<path d="M6.87516 14.5302C6.71133 14.3599 6.53289 14.2314 6.33983 14.1466C6.14738 14.0605 5.93971 14.0181 5.72047 14.0175C5.24239 14.0175 4.83678 14.2046 4.50183 14.5777C4.16748 14.9513 4.00061 15.4304 4 16.015C4 16.5789 4.17235 17.0511 4.51766 17.4298C4.86297 17.8097 5.27223 18 5.74544 18C5.95676 18.0003 6.15287 17.9613 6.33313 17.884C6.51401 17.806 6.69428 17.6793 6.87394 17.5022V17.9033H7.79842V14.1167H6.87516V14.5302ZM6.63033 16.8172C6.44032 17.0256 6.20098 17.1285 5.9123 17.1291C5.63277 17.1288 5.39708 17.0231 5.20646 16.811C5.01523 16.5995 4.91961 16.3294 4.91961 16.0019C4.91961 15.6756 5.01401 15.4092 5.20159 15.2009C5.38977 14.9925 5.62546 14.8896 5.90987 14.8896C6.20098 14.8896 6.44154 14.9919 6.63155 15.1959C6.82156 15.4011 6.88307 15.6344 6.88247 15.9644C6.88247 16.3019 6.82096 16.6095 6.63033 16.8172ZM13.0999 14.5302C12.9361 14.3599 12.757 14.2314 12.5652 14.1466C12.3715 14.0605 12.1651 14.0181 11.9446 14.0175C11.4677 14.0175 11.0609 14.2046 10.7266 14.5777C10.3922 14.9513 10.2253 15.4304 10.2247 16.015C10.2241 16.5789 10.3965 17.0511 10.7424 17.4298C11.0877 17.8097 11.497 18 11.9708 18C12.1815 18.0003 12.3776 17.9613 12.5573 17.884C12.7381 17.806 12.9184 17.6793 13.0981 17.5022V17.9033H14.0226V14.1167H13.0999V14.5302ZM12.8551 16.8172C12.6651 17.0256 12.4251 17.1285 12.1377 17.1291C11.8575 17.1288 11.6218 17.0231 11.4306 16.811C11.2394 16.5995 11.1437 16.3294 11.1444 16.0019C11.145 15.6756 11.2381 15.4092 11.4263 15.2009C11.6145 14.9925 11.8502 14.8896 12.1346 14.8896C12.4251 14.8896 12.6657 14.9919 12.8563 15.1959C13.0463 15.4011 13.1072 15.6344 13.1066 15.9644C13.1066 16.3019 13.0457 16.6095 12.8551 16.8172ZM19.5853 14.209C19.3868 14.0836 19.1572 14.0212 18.8953 14.0212C18.6419 14.0209 18.4099 14.0792 18.1961 14.1965C17.983 14.3132 17.8033 14.4835 17.6559 14.7087C17.5439 14.4835 17.3953 14.3125 17.2107 14.1959C17.025 14.0786 16.8179 14.02 16.5877 14.0193C16.36 14.0193 16.1498 14.0636 15.9568 14.1528C15.7637 14.2414 15.5883 14.3755 15.4306 14.5558V14.1167H14.5055L14.5043 17.9033H15.4287L15.4294 16.2233C15.43 15.8603 15.461 15.5939 15.5231 15.4248C15.5859 15.2558 15.6797 15.1248 15.8051 15.0306C15.9312 14.9376 16.0706 14.8902 16.2247 14.8902C16.3624 14.8905 16.4805 14.9276 16.578 15.0019C16.6754 15.0761 16.7479 15.189 16.7966 15.3406C16.8453 15.4922 16.8697 15.7367 16.8697 16.0755L16.8679 17.9033H17.7936V16.2002C17.7948 15.839 17.8252 15.577 17.8861 15.4142C17.9476 15.2508 18.0414 15.1235 18.1669 15.0306C18.2917 14.9382 18.4349 14.8921 18.5938 14.8921C18.8021 14.8921 18.9574 14.9682 19.0621 15.1191C19.1669 15.2714 19.2187 15.5614 19.2187 15.9888L19.2174 17.9033H20.1419L20.1431 15.6856C20.1431 15.2308 20.0999 14.9021 20.0134 14.7006C19.9269 14.4984 19.7844 14.3344 19.5853 14.209ZM23.3703 16.7873C23.123 17.0393 22.827 17.1653 22.4829 17.1653C22.1943 17.165 21.9586 17.0836 21.7722 16.9226C21.5865 16.7617 21.4726 16.5446 21.4293 16.2714L24.3952 16.2732L24.3989 16.0929C24.3989 15.4691 24.218 14.9675 23.8551 14.5864C23.4927 14.2065 23.0213 14.0162 22.4415 14.0156C21.8959 14.0156 21.4415 14.2058 21.0804 14.5883C20.718 14.9694 20.5371 15.4491 20.5371 16.0268C20.5365 16.5914 20.718 17.0599 21.0798 17.4348C21.4415 17.8103 21.9117 17.9975 22.4878 17.9975C22.8593 17.9978 23.1797 17.9301 23.4507 17.7941C23.7205 17.6587 23.9525 17.4485 24.1462 17.1653L23.3703 16.7873ZM21.8112 15.0468C22.0055 14.9002 22.2314 14.8272 22.4884 14.8278C22.7265 14.8278 22.9348 14.8927 23.1133 15.0231C23.2935 15.1541 23.4135 15.3231 23.4744 15.5315L21.4726 15.5303C21.5761 15.2994 21.6894 15.1379 21.8112 15.0468ZM26.5895 15.8996L27.8392 14.116H26.785L26.0615 15.1485L25.3356 14.116H24.2649L25.5274 15.9102L24.1315 17.9033H25.1857L26.0548 16.6619L26.9287 17.9033H28L26.5895 15.8996ZM10.0237 14C9.85258 14 9.70338 14.033 9.57853 14.0973C9.45551 14.1603 9.31421 14.2757 9.15526 14.4448V14.1167H8.2728V17.9033H9.19728L9.19668 15.9339C9.19668 15.2121 9.39156 14.8503 9.86294 14.8503C9.94455 14.8503 10.028 14.8684 10.112 14.9008C10.2637 14.6407 10.4391 14.3961 10.6352 14.1709C10.4238 14.0599 10.2198 14 10.0237 14Z" fill="white"/>
</g>
<defs>
<clipPath id="clip0_16827_9715">
<rect width="24" height="4" fill="white" transform="translate(4 14)"/>
</clipPath>
</defs>
</svg>
