<svg width="120" height="120" viewBox="0 0 120 120" fill="none" xmlns="http://www.w3.org/2000/svg">
<g clip-path="url(#clip0_2447_136240)">
<path d="M0 60C0 26.8629 26.8629 0 60 0C93.1371 0 120 26.8629 120 60C120 93.1371 93.1371 120 60 120C26.8629 120 0 93.1371 0 60Z" fill="#F3F4F6"/>
<path d="M120 104.97V120.005H0V105.025C6.97975 95.6972 16.0395 88.1266 26.4589 82.9152C36.8784 77.7038 48.37 74.9952 60.02 75.0049C84.54 75.0049 106.32 86.7749 120 104.97ZM80.01 44.9999C80.01 50.3043 77.9029 55.3913 74.1521 59.1421C70.4014 62.8928 65.3143 64.9999 60.01 64.9999C54.7057 64.9999 49.6186 62.8928 45.8679 59.1421C42.1171 55.3913 40.01 50.3043 40.01 44.9999C40.01 39.6956 42.1171 34.6085 45.8679 30.8578C49.6186 27.1071 54.7057 24.9999 60.01 24.9999C65.3143 24.9999 70.4014 27.1071 74.1521 30.8578C77.9029 34.6085 80.01 39.6956 80.01 44.9999Z" fill="#D1D5DB"/>
</g>
<defs>
<clipPath id="clip0_2447_136240">
<path d="M0 60C0 26.8629 26.8629 0 60 0C93.1371 0 120 26.8629 120 60C120 93.1371 93.1371 120 60 120C26.8629 120 0 93.1371 0 60Z" fill="white"/>
</clipPath>
</defs>
</svg>
