<svg width="17" height="16" viewBox="0 0 17 16" fill="none" xmlns="http://www.w3.org/2000/svg">
<path d="M8.375 1C5.84375 1 3.5625 2.34375 2.3125 4.5C1.03125 6.6875 1.03125 9.34375 2.3125 11.5C3.5625 13.6875 5.84375 15 8.375 15C10.875 15 13.1562 13.6875 14.4062 11.5C15.6875 9.34375 15.6875 6.6875 14.4062 4.5C13.1562 2.34375 10.875 1 8.375 1ZM8.375 16C5.5 16 2.875 14.5 1.4375 12C0 9.53125 0 6.5 1.4375 4C2.875 1.53125 5.5 0 8.375 0C11.2188 0 13.8438 1.53125 15.2812 4C16.7188 6.5 16.7188 9.53125 15.2812 12C13.8438 14.5 11.2188 16 8.375 16ZM11.7188 6.375L7.71875 10.375C7.53125 10.5625 7.1875 10.5625 7 10.375L5 8.375C4.8125 8.1875 4.8125 7.84375 5 7.65625C5.1875 7.46875 5.53125 7.46875 5.71875 7.65625L7.375 9.3125L11 5.65625C11.1875 5.46875 11.5312 5.46875 11.7188 5.65625C11.9062 5.84375 11.9062 6.1875 11.7188 6.375Z" fill="#6B7280"/>
</svg>
