<svg width="24" height="24" viewBox="0 0 24 24" fill="none" xmlns="http://www.w3.org/2000/svg">
<path d="M8 19H9V20H8C6.875 20 6 19.125 6 18V6C6 4.90625 6.875 4 8 4H12.875C13.25 4 13.6562 4.1875 13.9375 4.46875L17.5312 8.0625C17.8125 8.34375 18 8.75 18 9.125V13H17V10H13.5C12.6562 10 12 9.34375 12 8.5V5H8C7.4375 5 7 5.46875 7 6V18C7 18.5625 7.4375 19 8 19ZM16.9688 9C16.9375 8.9375 16.9062 8.84375 16.8438 8.78125L13.2188 5.15625C13.1562 5.09375 13.0625 5.0625 13 5.03125V8.5C13 8.78125 13.2188 9 13.5 9H16.9688Z" fill="#6B7280"/>
<path d="M13 15H12.1562C11.375 15 10.75 15.6562 10.75 16.4375C10.75 16.9688 11.0312 17.4688 11.5312 17.7188L12.5 18.2188C12.6562 18.2812 12.75 18.4375 12.75 18.5938C12.75 18.8125 12.5312 19 12.3125 19H11.25C10.9688 19 10.75 19.25 10.75 19.5C10.75 19.7812 10.9688 20 11.25 20H12.3125C13.0938 20 13.75 19.375 13.75 18.5938C13.75 18.0312 13.4375 17.5625 12.9375 17.3125L11.9688 16.8125C11.8125 16.75 11.75 16.5938 11.75 16.4375C11.75 16.2188 11.9375 16 12.1562 16H13C13.25 16 13.5 15.7812 13.5 15.5C13.5 15.25 13.25 15 13 15Z" fill="#6B7280"/>
<path d="M15 15.5V19.5C15 19.7812 15.2188 20 15.5 20H17C17.25 20 17.5 19.7812 17.5 19.5C17.5 19.25 17.25 19 17 19H16V15.5C16 15.25 15.75 15 15.5 15C15.2188 15 15 15.25 15 15.5Z" fill="#6B7280"/>
<path d="M18 16.25C18 15.5625 18.5312 15 19.25 15H19.75C20.4375 15 21 15.5625 21 16.25V19.5C21 19.7812 20.75 20 20.5 20C20.2188 20 20 19.7812 20 19.5V18.5H19V19.5C19 19.7812 18.75 20 18.5 20C18.2188 20 18 19.7812 18 19.5V16.25ZM19 17.5H20V16.25C20 16.125 19.875 16 19.75 16H19.25C19.0938 16 19 16.125 19 16.25V17.5Z" fill="#6B7280"/>
</svg>
