<svg width="12" height="16" viewBox="0 0 12 16" fill="none" xmlns="http://www.w3.org/2000/svg">
<path d="M2 0H7V4C7 4.5625 7.4375 5 8 5H12V14C12 15.125 11.0938 16 10 16H2C0.875 16 0 15.125 0 14V2C0 0.90625 0.875 0 2 0ZM8 0L12 4H8V0ZM3.5 8C3.21875 8 3 8.25 3 8.5C3 8.78125 3.21875 9 3.5 9H8.5C8.75 9 9 8.78125 9 8.5C9 8.25 8.75 8 8.5 8H3.5ZM3.5 10C3.21875 10 3 10.25 3 10.5C3 10.7812 3.21875 11 3.5 11H8.5C8.75 11 9 10.7812 9 10.5C9 10.25 8.75 10 8.5 10H3.5ZM3.5 12C3.21875 12 3 12.25 3 12.5C3 12.7812 3.21875 13 3.5 13H8.5C8.75 13 9 12.7812 9 12.5C9 12.25 8.75 12 8.5 12H3.5Z" fill="#4590BF"/>
</svg>
