<svg width="283" height="124" viewBox="0 0 283 124" fill="none" xmlns="http://www.w3.org/2000/svg">
<path d="M156.5 62V38H146C143.469 38 141.5 36.0312 141.5 33.5V23H129.5C127.812 23 126.5 24.4062 126.5 26V62C126.5 63.6875 127.812 65 129.5 65H153.5C155.094 65 156.5 63.6875 156.5 62ZM156.406 35C156.312 34.8125 156.219 34.5312 156.031 34.3438L145.156 23.4688C144.969 23.2812 144.688 23.1875 144.5 23.0938V33.5C144.5 34.3438 145.156 35 146 35H156.406ZM123.5 26C123.5 22.7188 126.125 20 129.5 20H144.125C145.25 20 146.469 20.5625 147.312 21.4062L158.094 32.1875C158.938 33.0312 159.5 34.25 159.5 35.375V62C159.5 65.375 156.781 68 153.5 68H129.5C126.125 68 123.5 65.375 123.5 62V26Z" fill="#D1D5DB"/>
<path d="M73.3367 110.32C73.3367 109.34 73.5167 108.24 73.8567 106.98L75.6167 107.28C75.3567 108.26 75.2367 109.1 75.2367 109.8C75.2367 112 76.5367 113.1 79.1167 113.1H87.1367C88.9967 113.1 90.4567 112.84 91.2567 112.46V105.14H93.1567V113.88C91.8767 114.54 89.6967 115 86.9167 115H78.9567C77.1967 115 75.8167 114.64 74.8167 113.94C73.8367 113.24 73.3367 112.02 73.3367 110.32ZM80.1567 104.72C80.1567 104 80.7167 103.44 81.4567 103.44C82.1567 103.44 82.7167 104 82.7167 104.72C82.7167 105.42 82.1567 106 81.4567 106C80.7367 106 80.1567 105.42 80.1567 104.72ZM83.9967 104.72C83.9967 104 84.5567 103.44 85.2767 103.44C85.9967 103.44 86.5567 104 86.5567 104.72C86.5567 105.42 85.9967 106 85.2767 106C84.5567 106 83.9967 105.42 83.9967 104.72ZM102.752 113.1H103.072V114.96C103.072 114.98 102.972 115 102.752 115H102.732C100.992 115 99.3923 114.54 98.2123 113.9C97.6323 113.58 97.4523 113.28 97.4523 112.58V100.4H99.3523V112.32C100.292 112.82 101.532 113.1 102.752 113.1ZM111.45 113.1H111.77V114.96C111.77 114.98 111.67 115 111.45 115H111.43C109.83 115 108.31 114.58 107.11 113.94C105.89 114.58 104.37 115 102.77 115H102.75C102.53 115 102.43 114.98 102.43 114.96V113.1H102.75C104.05 113.1 105.17 112.84 106.15 112.32V105.14H108.05V112.32C109.03 112.84 110.15 113.1 111.45 113.1ZM105.83 117.9C105.83 117.16 106.39 116.6 107.13 116.6C107.85 116.6 108.43 117.16 108.43 117.9C108.43 118.64 107.85 119.2 107.13 119.2C106.39 119.2 105.83 118.64 105.83 117.9ZM120.141 113.1H120.461V114.96C120.461 114.98 120.361 115 120.141 115H120.121C118.521 115 117.001 114.58 115.801 113.94C114.581 114.58 113.061 115 111.461 115H111.441C111.221 115 111.121 114.98 111.121 114.96V113.1H111.441C112.741 113.1 113.861 112.84 114.841 112.32V100.4H116.741V112.32C117.721 112.84 118.841 113.1 120.141 113.1ZM137.533 110.06V115H120.133C119.913 115 119.813 114.98 119.813 114.96V113.1H123.533V100.74H125.433V108.64C127.973 106.02 130.153 104.66 132.633 104.66C135.613 104.66 137.533 106.6 137.533 110.06ZM125.433 113.1H135.633V110.34C135.633 108.08 134.573 106.48 132.313 106.48C130.133 106.48 128.073 107.96 125.433 111.1V113.1ZM157.73 113.1V114.96C157.73 114.98 157.63 115 157.41 115H145.43V113.1H152.53V110.04C152.53 107.8 151.75 107.26 149.41 107.26H147.41V105.36H149.01C152.99 105.36 154.43 106.66 154.43 109.96V113.1H157.73ZM169.038 113.36L168.538 115H157.418C157.198 115 157.098 114.98 157.098 114.96V113.1H166.318C165.518 112.16 165.178 111.32 164.778 109.86C164.058 107.24 163.738 106.58 161.838 106.46C160.978 106.46 160.218 106.7 159.198 107.34L158.158 106C159.378 105.1 160.618 104.66 161.898 104.66C164.798 104.74 165.638 105.96 166.498 109.1C167.078 111.26 167.658 112.7 169.038 113.36ZM161.658 117.9C161.658 117.16 162.218 116.6 162.958 116.6C163.678 116.6 164.258 117.16 164.258 117.9C164.258 118.64 163.678 119.2 162.958 119.2C162.218 119.2 161.658 118.64 161.658 117.9ZM184.89 113.1V114.96C184.89 114.98 184.79 115 184.57 115H181.25C181.01 118.52 178.85 120.16 175.49 120.16C174.31 120.16 173.01 119.94 171.99 119.56L172.31 117.78C173.09 118.08 174.35 118.36 175.55 118.36C178.03 118.36 179.25 117.3 179.35 115H177.17C173.69 115 171.53 113.04 171.53 110.16C171.53 107.22 173.73 105.3 176.95 105.3C178.33 105.3 179.77 105.68 181.27 106.44V113.1H184.89ZM176.89 113.1H179.37V107.7C178.51 107.3 177.69 107.1 176.87 107.1C174.87 107.1 173.41 108.2 173.41 110.1C173.41 112 174.87 113.1 176.89 113.1ZM189.866 105.14V113.8C189.246 114.14 188.466 114.44 187.486 114.66C186.506 114.88 185.546 115 184.586 115H184.566C184.346 115 184.246 114.98 184.246 114.96V113.1H184.566C185.926 113.1 187.186 112.84 187.966 112.5V105.14H189.866ZM184.806 117.88C184.806 117.16 185.366 116.6 186.106 116.6C186.806 116.6 187.366 117.16 187.366 117.88C187.366 118.58 186.806 119.16 186.106 119.16C185.386 119.16 184.806 118.6 184.806 117.88ZM188.646 117.88C188.646 117.16 189.206 116.6 189.926 116.6C190.646 116.6 191.206 117.16 191.206 117.88C191.206 118.58 190.646 119.16 189.926 119.16C189.206 119.16 188.646 118.58 188.646 117.88ZM207.171 100.4H209.071V113.18C207.791 114.24 205.851 115 203.851 115H198.071V113.1H202.111L199.811 103.02H201.711L204.031 113.1C205.211 113.04 206.351 112.74 207.171 112.16V100.4Z" fill="#9CA3AF"/>
</svg>
