<svg width="16" height="17" viewBox="0 0 16 17" fill="none" xmlns="http://www.w3.org/2000/svg">
<path d="M15 8.34375C15 5.84375 13.6562 3.5625 11.5 2.3125C9.3125 1.03125 6.65625 1.03125 4.5 2.3125C2.3125 3.5625 1 5.84375 1 8.34375C1 10.875 2.3125 13.1562 4.5 14.4062C6.65625 15.6875 9.3125 15.6875 11.5 14.4062C13.6562 13.1562 15 10.875 15 8.34375ZM0 8.34375C0 5.5 1.5 2.875 4 1.4375C6.46875 0 9.5 0 12 1.4375C14.4688 2.875 16 5.5 16 8.34375C16 11.2188 14.4688 13.8438 12 15.2812C9.5 16.7188 6.46875 16.7188 4 15.2812C1.5 13.8438 0 11.2188 0 8.34375ZM7.5 3.84375C7.5 3.59375 7.71875 3.34375 8 3.34375C8.25 3.34375 8.5 3.59375 8.5 3.84375V8.09375L11.25 9.9375C11.5 10.0938 11.5625 10.4062 11.4062 10.625C11.25 10.875 10.9375 10.9375 10.7188 10.7812L7.71875 8.78125C7.5625 8.6875 7.5 8.53125 7.5 8.34375V3.84375Z" fill="#119DA9"/>
</svg>
