<svg width="105" height="32" viewBox="0 0 105 32" fill="none" xmlns="http://www.w3.org/2000/svg">
<path d="M43.9874 10.524V11.976C43.9874 11.988 43.9274 12 43.7954 12H39.5114C37.4354 12 36.0674 10.812 36.0674 8.94C36.0674 7.068 37.3754 5.88 39.3434 5.88C40.3514 5.88 41.3474 6.192 41.9714 6.54V10.524H43.9874ZM39.3074 10.524H40.5434V7.524C40.1714 7.32 39.7274 7.224 39.2354 7.224C38.2274 7.224 37.4834 7.8 37.4834 8.892C37.4834 9.948 38.2034 10.524 39.3074 10.524ZM37.3154 3.972C37.3154 3.492 37.6994 3.108 38.1914 3.108C38.6594 3.108 39.0434 3.492 39.0434 3.972C39.0434 4.452 38.6594 4.836 38.1914 4.836C37.6994 4.836 37.3154 4.452 37.3154 3.972ZM39.6794 3.972C39.6794 3.492 40.0514 3.108 40.5314 3.108C41.0114 3.108 41.3954 3.492 41.3954 3.972C41.3954 4.452 41.0114 4.836 40.5314 4.836C40.0514 4.836 39.6794 4.452 39.6794 3.972ZM48.9329 10.524H49.1249V11.976C49.1249 11.988 49.0649 12 48.9329 12H48.9209C47.9969 12 47.1449 11.784 46.3649 11.34C45.5969 11.784 44.7449 12 43.8089 12H43.7969C43.6649 12 43.6049 11.988 43.6049 11.976V10.524H43.7969C44.5289 10.524 45.1409 10.392 45.6569 10.14V3.24H47.0849V10.14C47.5649 10.392 48.2489 10.524 48.9329 10.524ZM58.4937 6.12H59.9217V10.932C59.2977 11.604 58.3137 12 57.3057 12C56.5977 12 55.9617 11.784 55.3977 11.364C54.8337 11.784 54.1857 12 53.4657 12C52.6497 12 51.9537 11.724 51.4737 11.352C50.9097 11.724 49.9857 12 48.9417 12H48.9297C48.7977 12 48.7377 11.988 48.7377 11.976V10.524H48.9297C49.6137 10.524 50.2377 10.392 50.7897 10.128V7.476H52.2177V10.152C52.5777 10.404 52.9857 10.524 53.4297 10.524C53.8737 10.524 54.2697 10.404 54.6417 10.164V7.476H56.0697V10.164C56.4417 10.404 56.8377 10.524 57.2817 10.524C57.7257 10.524 58.1337 10.404 58.4937 10.152V6.12Z" fill="#111827"/>
<path d="M12.6573 26.05H12.8173V26.98C12.8173 26.99 12.7673 27 12.6573 27C11.0573 26.97 10.6173 26.62 10.1973 25.28L9.75727 23.77H8.61727C8.01727 23.77 7.63727 24.06 7.63727 24.55C7.63727 24.65 7.65727 24.77 7.69727 24.9L8.75727 28.52C8.32727 28.79 7.76727 29.03 7.07727 29.25C6.39727 29.47 5.70727 29.58 5.01727 29.58C2.78727 29.58 1.49727 28.39 1.49727 26.48C1.49727 26 1.57727 25.45 1.69727 25.01L2.56727 25.17C2.47727 25.48 2.42727 25.93 2.42727 26.29C2.42727 27.8 3.34727 28.63 5.06727 28.63C5.53727 28.63 6.02727 28.57 6.51727 28.46C7.01727 28.35 7.41727 28.22 7.72727 28.07L6.80727 24.99C6.73727 24.77 6.70727 24.56 6.70727 24.36C6.70727 23.45 7.41727 22.89 8.42727 22.89H10.4173L11.0373 25.02C11.2673 25.82 11.5973 26.05 12.6573 26.05ZM3.34727 31.29C3.34727 30.93 3.62727 30.65 3.99727 30.65C4.34727 30.65 4.62727 30.93 4.62727 31.29C4.62727 31.64 4.34727 31.93 3.99727 31.93C3.63727 31.93 3.34727 31.65 3.34727 31.29ZM5.26727 31.29C5.26727 30.93 5.54727 30.65 5.90727 30.65C6.26727 30.65 6.54727 30.93 6.54727 31.29C6.54727 31.64 6.26727 31.93 5.90727 31.93C5.54727 31.93 5.26727 31.64 5.26727 31.29ZM16.7402 26.05H18.7202V27H12.6602C12.5502 27 12.5002 26.99 12.5002 26.98V26.05H14.6202C14.0602 25.64 13.7402 25 13.7402 24.24C13.7402 22.83 14.8202 21.83 16.3202 21.83C17.0402 21.83 17.6802 22.04 18.2402 22.47L17.6302 23.19C17.3102 22.91 16.8702 22.73 16.3502 22.73C15.8602 22.73 15.4602 22.88 15.1502 23.17C14.8402 23.46 14.6902 23.84 14.6902 24.31C14.6902 25.34 15.5402 26.05 16.7402 26.05ZM23.738 26.05H23.898V26.98C23.898 26.99 23.848 27 23.738 27H23.728C23.118 27 22.538 26.87 21.998 26.62V26.72C21.998 28.68 21.058 29.58 19.378 29.58C19.188 29.58 18.968 29.57 18.718 29.54L18.898 28.6C19.058 28.62 19.208 28.63 19.348 28.63C20.548 28.63 21.048 28.01 21.048 26.73V22.17H21.998V25.6C22.448 25.91 23.088 26.05 23.738 26.05ZM29.5444 22.21V26.44C28.8744 26.76 27.7544 27 26.4044 27H23.7344C23.6244 27 23.5744 26.99 23.5744 26.98V26.05H26.6344C25.5644 25.69 24.8644 24.98 24.8644 23.86C24.8644 22.45 25.9644 21.59 27.4344 21.59C28.1744 21.59 28.8744 21.8 29.5444 22.21ZM28.5944 25.7V22.78C28.2244 22.59 27.8144 22.49 27.3644 22.49C26.4044 22.49 25.8044 23.02 25.8044 23.87C25.8044 25 26.8444 25.62 28.5944 25.7ZM26.7244 19.96C26.7244 19.59 27.0144 19.3 27.3844 19.3C27.7444 19.3 28.0244 19.59 28.0244 19.96C28.0244 20.31 27.7444 20.6 27.3844 20.6C27.0144 20.6 26.7244 20.32 26.7244 19.96ZM42.231 26.05H42.391V26.98C42.391 26.99 42.341 27 42.231 27H42.221C41.641 27 41.071 26.89 40.511 26.68V28.61C39.721 29.17 38.531 29.58 37.241 29.58C35.051 29.58 33.841 28.47 33.841 26.44C33.841 25.93 33.911 25.43 34.041 24.95L34.911 25.11C34.821 25.5 34.771 25.88 34.771 26.26C34.771 27.87 35.631 28.63 37.301 28.63C38.191 28.63 38.891 28.41 39.561 28.09V19.7H40.511V22.17H40.521V25.66C41.011 25.92 41.581 26.05 42.231 26.05ZM46.5805 26.05H46.7405V26.98C46.7405 26.99 46.6905 27 46.5805 27H46.5705C45.7705 27 45.0105 26.79 44.4105 26.47C43.8005 26.79 43.0405 27 42.2405 27H42.2305C42.1205 27 42.0705 26.99 42.0705 26.98V26.05H42.2305C42.8805 26.05 43.4405 25.92 43.9305 25.66V22.07H44.8805V25.66C45.3705 25.92 45.9305 26.05 46.5805 26.05ZM43.8105 19.16C43.8105 18.81 44.0905 18.55 44.4205 18.55C44.7505 18.55 45.0305 18.83 45.0305 19.16C45.0305 19.49 44.7505 19.77 44.4205 19.77C44.0905 19.77 43.8105 19.49 43.8105 19.16ZM42.9105 20.49C42.9105 20.14 43.1805 19.88 43.5305 19.88C43.8605 19.88 44.1305 20.16 44.1305 20.49C44.1305 20.82 43.8605 21.1 43.5305 21.1C43.1805 21.1 42.9105 20.84 42.9105 20.49ZM44.7105 20.49C44.7105 20.14 44.9805 19.88 45.3305 19.88C45.6805 19.88 45.9305 20.14 45.9305 20.49C45.9305 20.84 45.6805 21.1 45.3305 21.1C44.9805 21.1 44.7105 20.84 44.7105 20.49ZM54.0662 26.05H54.2262V26.98C54.2262 26.99 54.1762 27 54.0662 27H54.0562C53.4062 27 52.8162 26.86 52.2862 26.57C51.8362 27.16 51.1262 27.5 50.3162 27.5C49.5062 27.5 48.7962 27.16 48.3462 26.57C47.8262 26.86 47.2362 27 46.5862 27H46.5762C46.4662 27 46.4162 26.99 46.4162 26.98V26.05H46.5762C47.1162 26.05 47.5762 25.96 47.9462 25.77C47.8562 25.52 47.8162 25.23 47.8162 24.9C47.8162 23.4 48.8662 22.3 50.3162 22.3C51.7662 22.3 52.8162 23.4 52.8162 24.9C52.8162 25.21 52.7762 25.5 52.6962 25.77C53.0862 25.96 53.5462 26.05 54.0662 26.05ZM51.8862 24.9C51.8862 24.41 51.7362 24 51.4462 23.68C51.1562 23.36 50.7762 23.2 50.3062 23.2C49.8362 23.2 49.4662 23.36 49.1762 23.68C48.8862 24 48.7462 24.41 48.7462 24.9C48.7462 25.39 48.8862 25.8 49.1762 26.12C49.4662 26.44 49.8362 26.6 50.3062 26.6C50.7762 26.6 51.1562 26.44 51.4462 26.12C51.7362 25.8 51.8862 25.39 51.8862 24.9ZM60.3464 24.9C60.3464 26.4 59.2964 27.5 57.8464 27.5C57.0364 27.5 56.3164 27.16 55.8764 26.57C55.3264 26.86 54.7264 27 54.0764 27H54.0664C53.9564 27 53.9064 26.99 53.9064 26.98V26.05H54.0664C54.6164 26.05 55.0764 25.95 55.4664 25.76C55.3864 25.5 55.3464 25.21 55.3464 24.9C55.3464 23.4 56.3964 22.3 57.8464 22.3C59.2964 22.3 60.3464 23.4 60.3464 24.9ZM59.4164 24.9C59.4164 24.41 59.2664 24 58.9764 23.68C58.6864 23.36 58.3064 23.2 57.8364 23.2C57.3664 23.2 56.9964 23.36 56.7064 23.68C56.4164 24 56.2764 24.41 56.2764 24.9C56.2764 25.39 56.4164 25.8 56.7064 26.12C56.9964 26.44 57.3664 26.6 57.8364 26.6C58.3064 26.6 58.6864 26.44 58.9764 26.12C59.2664 25.8 59.4164 25.39 59.4164 24.9Z" fill="#4B5563"/>
<g clip-path="url(#clip0_15817_23875)">
<path d="M73 16C73 7.16344 80.1634 0 89 0C97.8366 0 105 7.16344 105 16C105 24.8366 97.8366 32 89 32C80.1634 32 73 24.8366 73 16Z" fill="#004956"/>
<path d="M100.647 18.0206L100.091 13.3879C99.9428 12.1396 98.8811 11.2002 97.6232 11.2002H92.3149C91.057 11.2002 89.9985 12.1428 89.8473 13.3879L89.2908 18.0206C89.2071 18.7251 89.4291 19.4329 89.8988 19.9637C90.3685 20.4946 91.0473 20.8002 91.7583 20.8002H98.1765C98.8843 20.8002 99.5631 20.4946 100.036 19.9637C100.509 19.4361 100.731 18.7251 100.647 18.0206ZM99.1256 19.1594C98.8747 19.4426 98.524 19.6002 98.1444 19.6002H91.7969C91.4173 19.6002 91.0698 19.4426 90.8157 19.1594C90.5648 18.8763 90.4489 18.5096 90.494 18.1332L91.0441 13.5519C91.1213 12.8956 91.6811 12.397 92.3438 12.397H97.5942C98.257 12.397 98.8168 12.8924 98.894 13.5519L99.4441 18.1332C99.4892 18.5128 99.3765 18.8763 99.1256 19.1594Z" fill="white"/>
<path d="M98.1605 16.5983C98.0737 16.4631 97.9386 16.3731 97.7809 16.3409C97.6233 16.3087 97.4656 16.3377 97.3305 16.4245C95.7316 17.4669 94.1777 17.4669 92.5756 16.4245C92.4404 16.3377 92.2828 16.3087 92.1252 16.3409C91.9675 16.3731 91.8356 16.4664 91.7487 16.6015C91.6619 16.7366 91.6329 16.8942 91.6651 17.0519C91.6973 17.2095 91.7906 17.3414 91.9257 17.4283C92.9262 18.0781 93.9461 18.4095 94.9563 18.4095C95.9664 18.4095 96.9863 18.0781 97.9868 17.4283C98.1219 17.3414 98.212 17.2063 98.2442 17.0487C98.2764 16.891 98.2474 16.7334 98.1605 16.5983Z" fill="white"/>
<path d="M87.2683 14.0924L86.7021 14.2887C86.7632 14.4881 86.8404 14.7745 86.8404 14.9418C86.8404 15.1219 86.7246 15.2313 86.5058 15.2313C86.2806 15.2313 86.1487 15.1798 86.1487 14.8838V14.3723H85.5471V14.8838C85.5471 15.1798 85.412 15.2313 85.1739 15.2313C84.9391 15.2313 84.8072 15.1798 84.8072 14.8838V14.3723H84.2023V14.8774C84.2023 15.1766 84.0415 15.2313 83.6908 15.2313C83.3337 15.2313 83.2082 15.1605 83.2082 14.768V12.5771H82.5745V14.8002C82.5745 15.1637 82.449 15.2281 82.0919 15.2281C81.8088 15.2281 81.6447 15.1702 81.6447 14.8131V13.1723H81.0495V13.5101C79.9171 13.745 79.5117 14.2147 79.5117 14.8066C79.5117 15.3696 79.8849 15.7332 80.4286 15.7332C80.834 15.7332 81.0399 15.5273 81.1299 15.2506C81.2104 15.7428 81.4967 16.0292 82.0533 16.0292C82.4779 16.0292 82.716 15.8393 82.8157 15.5466C82.9412 15.8715 83.2211 16.0292 83.6522 16.0292C84.0479 16.0292 84.3053 15.8876 84.405 15.5916C84.5047 15.8908 84.7428 16.0292 85.0838 16.0292C85.4249 16.0292 85.6565 15.8876 85.753 15.5852C85.8527 15.8844 86.0972 16.0292 86.4865 16.0292C87.0785 16.0292 87.442 15.6431 87.442 14.9418C87.442 14.6876 87.368 14.3369 87.2683 14.0924ZM81.0463 14.797C80.9498 14.8742 80.7696 14.9321 80.5026 14.9321C80.2581 14.9321 80.0168 14.8645 80.0168 14.7037C80.0168 14.5267 80.271 14.3498 81.0463 14.2211V14.797Z" fill="white"/>
<path d="M81.3438 13.0532C81.5529 13.0532 81.7234 12.902 81.7234 12.6897C81.7234 12.4645 81.5432 12.3262 81.3438 12.3262C81.1347 12.3262 80.9609 12.4677 80.9609 12.6897C80.9609 12.9149 81.1475 13.0532 81.3438 13.0532Z" fill="white"/>
<path d="M80.4884 13.0532C80.6975 13.0532 80.868 12.902 80.868 12.6897C80.868 12.4645 80.6878 12.3262 80.4884 12.3262C80.2792 12.3262 80.1055 12.4677 80.1055 12.6897C80.1023 12.9149 80.2921 13.0532 80.4884 13.0532Z" fill="white"/>
<path d="M77.8008 19.4524L77.8941 18.9408C78.0775 19.0727 78.4056 19.1886 78.6791 19.1886C78.9171 19.1886 79.0555 19.1113 79.0555 18.9794C79.0555 18.6256 77.8233 18.9537 77.8233 18.0947C77.8233 17.6443 78.1933 17.3516 78.7949 17.3516C79.1166 17.3516 79.4158 17.4416 79.6281 17.551L79.5252 18.0497C79.3257 17.9435 79.0716 17.847 78.8271 17.847C78.6019 17.847 78.4635 17.9339 78.4635 18.0561C78.4635 18.4261 79.6957 18.1076 79.6957 18.9119C79.6957 19.3526 79.2742 19.6615 78.6565 19.6615C78.2834 19.6647 77.9842 19.5521 77.8008 19.4524Z" fill="white"/>
<path d="M81.7623 17.425H82.4057V19.5998H81.7623V19.2395C81.5854 19.5 81.3377 19.6513 81.0159 19.6513C80.469 19.6513 79.9414 19.262 79.9414 18.5092C79.9414 17.7563 80.4433 17.3574 81.0159 17.3574C81.3344 17.3574 81.5822 17.4765 81.7623 17.7113V17.425ZM81.7623 18.5027C81.6433 18.0974 81.4084 17.8947 81.1382 17.8947C80.8486 17.8947 80.6234 18.1102 80.6234 18.5027C80.6234 18.892 80.8519 19.1204 81.1414 19.1204C81.4245 19.1204 81.6562 18.8695 81.7623 18.5027Z" fill="white"/>
<path d="M82.8789 19.6002V16.7305H83.5223V19.6002H82.8789Z" fill="white"/>
<path d="M83.9961 19.6002V16.7305H84.6395V19.6002H83.9961Z" fill="white"/>
<path d="M86.8287 17.425H87.4722V19.5998H86.8287V19.2395C86.6518 19.5 86.4041 19.6513 86.0823 19.6513C85.5354 19.6513 85.0078 19.262 85.0078 18.5092C85.0078 17.7563 85.5097 17.3574 86.0823 17.3574C86.4008 17.3574 86.6486 17.4765 86.8287 17.7113V17.425ZM86.8287 18.5027C86.7097 18.0974 86.4748 17.8947 86.2046 17.8947C85.9151 17.8947 85.6899 18.1102 85.6899 18.5027C85.6899 18.892 85.9183 19.1204 86.2078 19.1204C86.4909 19.1204 86.7226 18.8695 86.8287 18.5027Z" fill="white"/>
</g>
<defs>
<clipPath id="clip0_15817_23875">
<rect width="32" height="32" fill="white" transform="translate(73)"/>
</clipPath>
</defs>
</svg>
