<svg width="56" height="56" viewBox="0 0 56 56" fill="none" xmlns="http://www.w3.org/2000/svg">
<g clip-path="url(#clip0_16718_2773)">
<path d="M0 28C0 12.536 12.536 0 28 0V0C43.464 0 56 12.536 56 28V28C56 43.464 43.464 56 28 56V56C12.536 56 0 43.464 0 28V28Z" fill="#004956"/>
<path d="M48.3784 31.5358L47.4044 23.4285C47.1455 21.2441 45.2875 19.6001 43.0862 19.6001H33.7967C31.5953 19.6001 29.743 21.2497 29.4784 23.4285L28.5044 31.5358C28.3581 32.7687 28.7465 34.0073 29.5685 34.9363C30.3905 35.8652 31.5784 36.4001 32.8227 36.4001H44.0546C45.2932 36.4001 46.4811 35.8652 47.3087 34.9363C48.1363 34.013 48.5248 32.7687 48.3784 31.5358ZM45.7154 33.5288C45.2763 34.0242 44.6626 34.3001 43.9983 34.3001H32.8902C32.2259 34.3001 31.6178 34.0242 31.1731 33.5288C30.7339 33.0333 30.5312 32.3915 30.6101 31.7328L31.5728 23.7156C31.7079 22.5671 32.6875 21.6945 33.8473 21.6945H43.0355C44.1953 21.6945 45.1749 22.5615 45.3101 23.7156L46.2728 31.7328C46.3516 32.3971 46.1546 33.0333 45.7154 33.5288Z" fill="white"/>
<path d="M44.0266 29.0474C43.8745 28.811 43.6381 28.6533 43.3622 28.597C43.0863 28.5407 42.8105 28.5914 42.574 28.7434C39.7759 30.5675 37.0566 30.5675 34.2528 28.7434C34.0164 28.5914 33.7405 28.5407 33.4646 28.597C33.1888 28.6533 32.9579 28.8166 32.8059 29.0531C32.6539 29.2895 32.6032 29.5654 32.6595 29.8413C32.7158 30.1171 32.8791 30.348 33.1156 30.5C34.8665 31.6372 36.6512 32.2171 38.4191 32.2171C40.1869 32.2171 41.9716 31.6372 43.7225 30.5C43.959 30.348 44.1166 30.1115 44.1729 29.8356C44.2292 29.5598 44.1786 29.2839 44.0266 29.0474Z" fill="white"/>
<path d="M24.9693 24.6615L23.9784 25.0049C24.0853 25.354 24.2205 25.8551 24.2205 26.1478C24.2205 26.4631 24.0178 26.6545 23.6349 26.6545C23.2408 26.6545 23.01 26.5645 23.01 26.0465V25.1513H21.9572V26.0465C21.9572 26.5645 21.7207 26.6545 21.3041 26.6545C20.8931 26.6545 20.6623 26.5645 20.6623 26.0465V25.1513H19.6038V26.0352C19.6038 26.5588 19.3223 26.6545 18.7087 26.6545C18.0837 26.6545 17.8642 26.5307 17.8642 25.8438V22.0098H16.755V25.9001C16.755 26.5363 16.5355 26.6489 15.9105 26.6489C15.4151 26.6489 15.128 26.5476 15.128 25.9226V23.0513H14.0864V23.6425C12.1046 24.0535 11.3953 24.8754 11.3953 25.9114C11.3953 26.8966 12.0483 27.5328 12.9998 27.5328C13.7092 27.5328 14.0695 27.1725 14.2272 26.6883C14.3679 27.5497 14.869 28.0508 15.843 28.0508C16.5861 28.0508 17.0028 27.7186 17.1773 27.2063C17.3969 27.7749 17.8867 28.0508 18.6411 28.0508C19.3336 28.0508 19.784 27.8031 19.9585 27.2851C20.1331 27.8087 20.5497 28.0508 21.1465 28.0508C21.7433 28.0508 22.1486 27.8031 22.3175 27.2738C22.492 27.7974 22.9199 28.0508 23.6012 28.0508C24.6371 28.0508 25.2733 27.3752 25.2733 26.1478C25.2733 25.7031 25.1438 25.0894 24.9693 24.6615ZM14.0808 25.8945C13.9119 26.0296 13.5966 26.1309 13.1293 26.1309C12.7014 26.1309 12.2792 26.0127 12.2792 25.7312C12.2792 25.4216 12.7239 25.1119 14.0808 24.8867V25.8945Z" fill="white"/>
<path d="M14.5987 22.8432C14.9646 22.8432 15.263 22.5786 15.263 22.207C15.263 21.8129 14.9477 21.5708 14.5987 21.5708C14.2327 21.5708 13.9287 21.8185 13.9287 22.207C13.9287 22.6011 14.2553 22.8432 14.5987 22.8432Z" fill="white"/>
<path d="M13.1012 22.8432C13.4671 22.8432 13.7655 22.5786 13.7655 22.207C13.7655 21.8129 13.4503 21.5708 13.1012 21.5708C12.7352 21.5708 12.4312 21.8185 12.4312 22.207C12.4256 22.6011 12.7578 22.8432 13.1012 22.8432Z" fill="white"/>
<path d="M8.40015 34.0412L8.56342 33.146C8.88433 33.3768 9.45859 33.5795 9.93714 33.5795C10.3538 33.5795 10.5959 33.4444 10.5959 33.2135C10.5959 32.5942 8.43956 33.1685 8.43956 31.6653C8.43956 30.8771 9.08701 30.3647 10.1398 30.3647C10.7028 30.3647 11.2264 30.5224 11.598 30.7138L11.4178 31.5865C11.0688 31.4007 10.624 31.2318 10.1961 31.2318C9.80202 31.2318 9.55993 31.3838 9.55993 31.5977C9.55993 32.2452 11.7162 31.6878 11.7162 33.0953C11.7162 33.8666 10.9787 34.4071 9.89773 34.4071C9.24465 34.4127 8.72106 34.2157 8.40015 34.0412Z" fill="white"/>
<path d="M15.3306 30.4942H16.4566V34.3001H15.3306V33.6695C15.021 34.1256 14.5875 34.3902 14.0245 34.3902C13.0674 34.3902 12.144 33.709 12.144 32.3915C12.144 31.0741 13.0223 30.376 14.0245 30.376C14.5818 30.376 15.0154 30.5843 15.3306 30.9953V30.4942ZM15.3306 32.3803C15.1223 31.6709 14.7113 31.3162 14.2384 31.3162C13.7317 31.3162 13.3376 31.6934 13.3376 32.3803C13.3376 33.0615 13.7373 33.4612 14.244 33.4612C14.7395 33.4612 15.1448 33.0221 15.3306 32.3803Z" fill="white"/>
<path d="M17.2844 34.3003V29.2783H18.4104V34.3003H17.2844Z" fill="white"/>
<path d="M19.2437 34.3003V29.2783H20.3697V34.3003H19.2437Z" fill="white"/>
<path d="M24.1981 30.4942H25.3241V34.3001H24.1981V33.6695C23.8884 34.1256 23.4549 34.3902 22.8919 34.3902C21.9348 34.3902 21.0115 33.709 21.0115 32.3915C21.0115 31.0741 21.8898 30.376 22.8919 30.376C23.4493 30.376 23.8828 30.5843 24.1981 30.9953V30.4942ZM24.1981 32.3803C23.9898 31.6709 23.5788 31.3162 23.1058 31.3162C22.5991 31.3162 22.205 31.6934 22.205 32.3803C22.205 33.0615 22.6048 33.4612 23.1115 33.4612C23.6069 33.4612 24.0123 33.0221 24.1981 32.3803Z" fill="white"/>
</g>
<defs>
<clipPath id="clip0_16718_2773">
<rect width="56" height="56" fill="white"/>
</clipPath>
</defs>
</svg>
