<svg width="20" height="17" viewBox="0 0 20 17" fill="none" xmlns="http://www.w3.org/2000/svg">
<path d="M3 2.59375C3 3.15625 3.28125 3.625 3.75 3.90625C4.1875 4.1875 4.78125 4.1875 5.25 3.90625C5.6875 3.625 6 3.15625 6 2.59375C6 2.0625 5.6875 1.59375 5.25 1.3125C4.78125 1.03125 4.1875 1.03125 3.75 1.3125C3.28125 1.59375 3 2.0625 3 2.59375ZM7 2.59375C7 3.5 6.5 4.3125 5.75 4.78125C4.96875 5.21875 4 5.21875 3.25 4.78125C2.46875 4.3125 2 3.5 2 2.59375C2 1.71875 2.46875 0.90625 3.25 0.4375C4 0 4.96875 0 5.75 0.4375C6.5 0.90625 7 1.71875 7 2.59375ZM10 5.09375C9.28125 5.09375 8.625 5.5 8.25 6.09375C7.90625 6.71875 7.90625 7.5 8.25 8.09375C8.625 8.71875 9.28125 9.09375 10 9.09375C10.6875 9.09375 11.3438 8.71875 11.7188 8.09375C12.0625 7.5 12.0625 6.71875 11.7188 6.09375C11.3438 5.5 10.6875 5.09375 10 5.09375ZM10 10.0938C8.90625 10.0938 7.9375 9.53125 7.375 8.59375C6.84375 7.6875 6.84375 6.53125 7.375 5.59375C7.9375 4.6875 8.90625 4.09375 10 4.09375C11.0625 4.09375 12.0312 4.6875 12.5938 5.59375C13.125 6.53125 13.125 7.6875 12.5938 8.59375C12.0312 9.53125 11.0625 10.0938 10 10.0938ZM8.15625 12.0938C6.46875 12.0938 5.0625 13.4375 5 15.0938H14.9688C14.9062 13.4375 13.5 12.0938 11.8125 12.0938H8.15625ZM8.15625 11.0938H11.8125C14.125 11.0938 16 12.9688 16 15.2812C16 15.75 15.625 16.0938 15.1562 16.0938H4.8125C4.34375 16.0938 4 15.7188 4 15.2812C4 12.9688 5.84375 11.0938 8.15625 11.0938ZM16 1.09375C15.4375 1.09375 14.9688 1.40625 14.6875 1.84375C14.4062 2.3125 14.4062 2.90625 14.6875 3.34375C14.9688 3.8125 15.4375 4.09375 16 4.09375C16.5312 4.09375 17 3.8125 17.2812 3.34375C17.5625 2.90625 17.5625 2.3125 17.2812 1.84375C17 1.40625 16.5312 1.09375 16 1.09375ZM16 5.09375C15.0938 5.09375 14.2812 4.625 13.8125 3.84375C13.375 3.09375 13.375 2.125 13.8125 1.34375C14.2812 0.59375 15.0938 0.09375 16 0.09375C16.875 0.09375 17.6875 0.59375 18.1562 1.34375C18.5938 2.125 18.5938 3.09375 18.1562 3.84375C17.6875 4.625 16.875 5.09375 16 5.09375ZM16.5 7.09375H14C14 6.75 13.9375 6.4375 13.875 6.09375H16.5C18.4062 6.09375 20 7.6875 20 9.59375C20 9.875 19.75 10.0938 19.5 10.0938C19.2188 10.0938 19 9.875 19 9.59375C19 8.21875 17.875 7.09375 16.5 7.09375ZM6 7.09375H3.5C2.09375 7.09375 1 8.21875 1 9.59375C1 9.875 0.75 10.0938 0.5 10.0938C0.21875 10.0938 0 9.875 0 9.59375C0 7.6875 1.5625 6.09375 3.5 6.09375H6.125C6.03125 6.4375 6 6.75 6 7.09375Z" fill="#6B7280"/>
</svg>
