<svg width="67" height="64" viewBox="0 0 67 64" fill="none" xmlns="http://www.w3.org/2000/svg">
<path d="M33.5 64C22 64 11.5 58 5.75 48C0 38.125 0 26 5.75 16C11.5 6.125 22 0 33.5 0C44.875 0 55.375 6.125 61.125 16C66.875 26 66.875 38.125 61.125 48C55.375 58 44.875 64 33.5 64ZM47.625 26.125H47.5C48.75 25 48.75 23.125 47.5 21.875C46.375 20.75 44.5 20.75 43.375 21.875L29.5 35.875L23.625 30C22.375 28.75 20.5 28.75 19.375 30C18.125 31.125 18.125 33 19.375 34.125L27.375 42.125C28.5 43.375 30.375 43.375 31.625 42.125L47.625 26.125Z" fill="#119DA9"/>
</svg>
